<svg width="20" height="20" viewBox="0 0 20 20" fill="none" xmlns="http://www.w3.org/2000/svg">
<path fill-rule="evenodd" clip-rule="evenodd" d="M13.4412 8.7353H11.0883V6.38236C11.0883 5.7353 10.5588 5.20589 9.91178 5.20589C9.26472 5.20589 8.73531 5.7353 8.73531 6.38236V8.7353H6.38237C5.73531 8.7353 5.2059 9.26471 5.2059 9.91177C5.2059 10.5588 5.73531 11.0882 6.38237 11.0882H8.73531V13.4412C8.73531 14.0882 9.26472 14.6177 9.91178 14.6177C10.5588 14.6177 11.0883 14.0882 11.0883 13.4412V11.0882H13.4412C14.0882 11.0882 14.6177 10.5588 14.6177 9.91177C14.6177 9.26471 14.0882 8.7353 13.4412 8.7353ZM9.91176 0.5C4.71176 0.5 0.5 4.71176 0.5 9.91176C0.5 15.1118 4.71176 19.3235 9.91176 19.3235C15.1118 19.3235 19.3235 15.1118 19.3235 9.91176C19.3235 4.71176 15.1118 0.5 9.91176 0.5ZM9.91173 16.9706C6.01761 16.9706 2.85291 13.8059 2.85291 9.91176C2.85291 6.01764 6.01761 2.85294 9.91173 2.85294C13.8059 2.85294 16.9706 6.01764 16.9706 9.91176C16.9706 13.8059 13.8176 16.9706 9.91173 16.9706Z" fill="white"/>
</svg>
