<svg width="10" height="12" viewBox="0 0 10 12" fill="none" xmlns="http://www.w3.org/2000/svg">
<path fill-rule="evenodd" clip-rule="evenodd" d="M0 1.1043C0 0.811419 0.116345 0.530537 0.323441 0.323441C0.530537 0.116345 0.811419 0 1.1043 0L7.14627 0L9.57057 2.4243V9.93867C9.57057 10.2315 9.45423 10.5124 9.24713 10.7195C9.04004 10.9266 8.75915 11.043 8.46628 11.043H1.1043C0.811419 11.043 0.530537 10.9266 0.323441 10.7195C0.116345 10.5124 0 10.2315 0 9.93867V1.1043ZM4.41719 2.94479H2.20859V3.68099H4.41719V2.94479ZM7.36198 5.15339H2.20859V5.88958H7.36198V5.15339ZM3.90553 8.03045C3.60811 8.10996 3.37547 8.33744 3.29449 8.58259L2.5951 8.34996C2.75927 7.85891 3.18921 7.46063 3.71412 7.31928C4.23461 7.1794 4.82872 7.29719 5.34259 7.7691C5.49719 7.72443 5.64983 7.69818 5.8005 7.69032C6.19805 7.66897 6.55363 7.7691 6.85916 7.89646C7.0837 7.98996 7.30087 8.10775 7.48492 8.20713C7.54284 8.23953 7.59732 8.26897 7.64836 8.29548C7.88615 8.42063 8.01646 8.46628 8.09818 8.46628V9.20247C7.81106 9.20247 7.52836 9.06407 7.30603 8.94775L7.10578 8.84026C6.93364 8.74333 6.75673 8.65512 6.57572 8.57597C6.32983 8.4729 6.08762 8.41253 5.84026 8.42579C5.80333 8.42783 5.7665 8.43127 5.72983 8.43609L5.73056 8.4464C5.75044 8.68493 5.65179 8.88149 5.52443 9.02284C5.29032 9.28345 4.90823 9.42039 4.62111 9.47192C4.47229 9.50131 4.31981 9.50751 4.16909 9.49033C4.08361 9.47939 4.00109 9.45188 3.92614 9.40935C3.86777 9.37593 3.81751 9.33002 3.77894 9.27492C3.74038 9.21981 3.71447 9.15686 3.70308 9.09057C3.68519 8.96671 3.71434 8.84063 3.78479 8.7372C3.83843 8.65881 3.90344 8.58884 3.97768 8.52959C4.11755 8.41401 4.32001 8.28885 4.59167 8.15192L4.61154 8.1372C4.50715 8.07238 4.39065 8.02949 4.26915 8.01114C4.14764 7.99279 4.02441 7.99936 3.90553 8.03045Z" fill="#FF282F"/>
</svg>
