<svg width="16" height="14" viewBox="0 0 16 14" fill="none" xmlns="http://www.w3.org/2000/svg">
<path fill-rule="evenodd" clip-rule="evenodd" d="M0.337481 5.9625L5.96248 0.3375C6.16498 0.12375 6.44623 0 6.76123 0C7.37998 0 7.88623 0.50625 7.88623 1.125C7.88623 1.44 7.76248 1.72125 7.55998 1.92375L3.85873 5.625H14.6362C15.255 5.625 15.7612 6.13125 15.7612 6.75C15.7612 7.36875 15.255 7.875 14.6362 7.875H3.84748L7.54873 11.5763C7.75123 11.7788 7.87498 12.06 7.87498 12.375C7.87498 12.9937 7.36873 13.5 6.74998 13.5C6.43498 13.5 6.15373 13.3763 5.95123 13.1737L0.32623 7.54875C0.12373 7.34625 -2.00272e-05 7.065 -2.00272e-05 6.75C-2.00272e-05 6.435 0.13498 6.165 0.337481 5.9625Z" fill="white"/>
</svg>
