<svg width="11" height="10" viewBox="0 0 11 10" fill="none" xmlns="http://www.w3.org/2000/svg">
<path d="M9.8912 5.18583C9.13034 5.18583 1.16686 5.18583 0.957213 5.18583V4.17747H1.59536C1.77158 4.17747 1.91443 4.04848 1.91443 3.88937V3.16912C1.91443 3.01001 1.77158 2.88102 1.59536 2.88102C1.41913 2.88102 1.27628 3.01001 1.27628 3.16912V3.60127H0.957213V1.10298C0.957213 0.63656 1.58662 0.399579 1.95313 0.7305L2.29095 1.03553C2.02325 1.45689 2.08826 2.0049 2.48648 2.36449L2.64602 2.50854C2.77059 2.62104 2.97265 2.62106 3.09724 2.50854L4.37353 1.35613C4.49815 1.24363 4.49815 1.0612 4.37353 0.9487L4.21399 0.80465C3.80817 0.438203 3.2002 0.389423 2.74194 0.627881L2.40436 0.32307C2.17363 0.114736 1.86689 0 1.54061 0C0.867056 0 0.319071 0.494796 0.319071 1.10298V5.18583C0.142844 5.18583 0 5.31483 0 5.47393C0 5.63303 0.142844 5.76203 0.319071 5.76203V6.33823C0.319071 7.12852 0.712765 7.83721 1.33224 8.31319L0.886778 8.73146C0.691287 8.915 0.83802 9.21925 1.11671 9.21925C1.20045 9.21925 1.2841 9.18965 1.34672 9.13084L1.86956 8.63993C2.26529 8.82587 2.71462 8.93115 3.19071 8.93115H7.01956C7.49566 8.93115 7.94499 8.82587 8.34072 8.63993L8.86356 9.13084C8.98532 9.24518 9.18729 9.24941 9.3147 9.1388C9.44171 9.02851 9.44564 8.84612 9.3235 8.73144L8.87803 8.31317C9.49751 7.83721 9.8912 7.12852 9.8912 6.33823V5.76203C10.0674 5.76203 10.2103 5.63303 10.2103 5.47393C10.2103 5.31483 10.0674 5.18583 9.8912 5.18583ZM3.69145 1.15712L2.87692 1.89259C2.71248 1.68683 2.73274 1.39715 2.93771 1.21206C3.14467 1.02521 3.46539 1.00933 3.69145 1.15712ZM9.25306 6.33823C9.25306 7.45025 8.25112 8.35495 7.01956 8.35495H3.19071C1.95916 8.35495 0.957213 7.45025 0.957213 6.33823V5.76203H9.25306V6.33823Z" fill="#C1C2CE"/>
</svg>
