<svg width="17" height="15" viewBox="0 0 17 15" fill="none" xmlns="http://www.w3.org/2000/svg">
<g clip-path="url(#clip0_1_3588)">
<path d="M16.0069 8.3922C14.7756 8.3922 1.88833 8.3922 1.54905 8.3922V6.76039H2.58176C2.86694 6.76039 3.09811 6.55163 3.09811 6.29415V5.12857C3.09811 4.87109 2.86694 4.66234 2.58176 4.66234C2.29657 4.66234 2.06541 4.87109 2.06541 5.12857V5.82792H1.54905V1.78495C1.54905 1.03014 2.56762 0.646637 3.16075 1.18216L3.70744 1.67579C3.27422 2.35768 3.37942 3.24452 4.02386 3.82644L4.28204 4.05955C4.48364 4.24162 4.81062 4.24165 5.01226 4.05955L7.07766 2.19462C7.27933 2.01256 7.27933 1.71734 7.07766 1.53528L6.81949 1.30216C6.16275 0.709141 5.17888 0.630202 4.43727 1.0161L3.89097 0.522823C3.51758 0.185678 3.02117 0 2.49317 0C1.40315 0 0.516351 0.800727 0.516351 1.78495V8.3922C0.231164 8.3922 0 8.60096 0 8.85844C0 9.11592 0.231164 9.32467 0.516351 9.32467V10.2571C0.516351 11.536 1.15346 12.6829 2.15596 13.4532L1.43507 14.1301C1.11871 14.4271 1.35616 14.9195 1.80717 14.9195C1.94268 14.9195 2.07806 14.8716 2.17939 14.7764L3.0255 13.982C3.6659 14.2829 4.39305 14.4532 5.16351 14.4532H11.3597C12.1302 14.4532 12.8573 14.2829 13.4977 13.982L14.3439 14.7764C14.5409 14.9614 14.8678 14.9683 15.0739 14.7893C15.2795 14.6108 15.2858 14.3156 15.0882 14.1301L14.3673 13.4532C15.3698 12.6829 16.0069 11.536 16.0069 10.2571V9.32467C16.2921 9.32467 16.5232 9.11592 16.5232 8.85844C16.5232 8.60096 16.2921 8.3922 16.0069 8.3922ZM5.97386 1.87257L4.65571 3.06278C4.3896 2.7298 4.42239 2.261 4.75408 1.96147C5.089 1.65909 5.60803 1.63339 5.97386 1.87257ZM14.9742 10.2571C14.9742 12.0567 13.3528 13.5208 11.3597 13.5208H5.16351C3.17049 13.5208 1.54905 12.0567 1.54905 10.2571V9.32467H14.9742V10.2571Z" fill="#EEBE00"/>
</g>
<defs>
<clipPath id="clip0_1_3588">
<rect width="16.5232" height="14.9195" fill="white"/>
</clipPath>
</defs>
</svg>
