<svg width="22" height="22" viewBox="0 0 22 22" fill="none" xmlns="http://www.w3.org/2000/svg">
<g clip-path="url(#clip0_1_3254)">
<path fill-rule="evenodd" clip-rule="evenodd" d="M17.4517 3.09332C17.593 3.09342 17.7284 3.14954 17.8284 3.24936C17.9283 3.34919 17.9846 3.48457 17.9849 3.62583V18.1786C17.9846 18.3198 17.9283 18.4552 17.8284 18.555C17.7284 18.6548 17.593 18.7109 17.4517 18.7109H4.54669C4.40543 18.7109 4.26996 18.6548 4.17 18.555C4.07004 18.4552 4.01375 18.3198 4.01349 18.1786V3.62583C4.01376 3.48457 4.07005 3.34917 4.17 3.24935C4.26996 3.14952 4.40542 3.09341 4.54669 3.09332H6.88419V11.3137C6.88415 11.4398 6.92112 11.5631 6.99052 11.6684C7.05992 11.7737 7.1587 11.8563 7.2746 11.906C7.39051 11.9557 7.51845 11.9703 7.64256 11.9479C7.76667 11.9256 7.8815 11.8673 7.9728 11.7803L10.9465 8.9418L14.0338 11.7877C14.1258 11.8726 14.2406 11.9289 14.3641 11.9496C14.4876 11.9703 14.6145 11.9545 14.7291 11.9042C14.8438 11.8539 14.9413 11.7713 15.0097 11.6664C15.0782 11.5615 15.1145 11.4389 15.1143 11.3137V3.09332H17.4517ZM8.17128 1.28906V9.80813L10.4944 7.5918C10.6148 7.47746 10.7744 7.41363 10.9404 7.41344C11.102 7.41353 11.2577 7.47462 11.3762 7.5845L13.8251 9.84298V1.28906H8.17128ZM14.2751 0H7.72328C7.50066 0.000556975 7.28733 0.0893232 7.13002 0.246856C6.97272 0.404388 6.88426 0.617844 6.88402 0.840469V1.80421H4.54652C4.06378 1.80506 3.60108 1.99729 3.25987 2.33877C2.91866 2.68025 2.72678 3.1431 2.72632 3.62583V18.1786C2.72672 18.6613 2.9186 19.1242 3.25987 19.4657C3.60114 19.8072 4.06392 19.9993 4.54669 20H17.4517C17.9347 19.9994 18.3977 19.8073 18.7393 19.4659C19.0809 19.1245 19.2732 18.6616 19.2741 18.1786V3.62583C19.2732 3.14286 19.0809 2.67994 18.7393 2.3385C18.3977 1.99706 17.9347 1.80493 17.4517 1.80421H15.1142V0.840512C15.114 0.617909 15.0255 0.404468 14.8683 0.246931C14.711 0.0893946 14.4977 0.000602405 14.2751 0Z" fill="#427EFF" stroke="#427EFF" stroke-width="0.3"/>
</g>
<defs>
<clipPath id="clip0_1_3254">
<rect width="22" height="22" fill="white"/>
</clipPath>
</defs>
</svg>
