<svg width="11" height="11" viewBox="0 0 11 11" fill="none" xmlns="http://www.w3.org/2000/svg">
<path d="M2.11926 6.35013C2.26942 6.32114 2.41958 6.29035 2.56788 6.2523V3.02402L5.18731 1.34285L7.81229 2.98236V5.59918L9.04507 5.39015L9.04322 3.62547H10.0517C10.1981 3.62547 10.3205 3.53489 10.3613 3.39721C10.4021 3.25953 10.3502 3.12004 10.2259 3.04033L5.48577 0.0855983C5.30224 -0.0285328 5.06681 -0.0285328 4.88328 0.0855983L0.150523 3.04033C0.0263184 3.12004 -0.0292955 3.25772 0.0151958 3.3954C0.0541257 3.53308 0.17833 3.62185 0.32478 3.62185H1.34252L1.33881 6.42259L1.44448 6.41897C1.6725 6.41172 1.89681 6.38817 2.11926 6.35013Z" fill="white"/>
<path d="M9.05767 6.0214V7.37727C7.54106 7.30194 6.60932 8.59949 5.85987 10.2105H4.49011V6.75765C4.16096 7.07353 3.18618 8.34435 1.31763 8.34435V6.98849C2.77601 7.07839 3.85713 6.48065 4.49011 5.10535H5.85987V8.03576C5.91558 7.97258 6.91061 6.0214 9.05767 6.0214Z" fill="url(#paint0_linear_1_4524)"/>
<defs>
<linearGradient id="paint0_linear_1_4524" x1="33.6724" y1="-19.7679" x2="1.49053" y2="13.2933" gradientUnits="userSpaceOnUse">
<stop stop-color="white"/>
<stop offset="1" stop-color="#DD1F26"/>
</linearGradient>
</defs>
</svg>
