<svg width="11" height="11" viewBox="0 0 11 11" fill="none" xmlns="http://www.w3.org/2000/svg">
<path fill-rule="evenodd" clip-rule="evenodd" d="M2.2277 1.12373C1.92696 1.13654 1.71087 1.16495 1.51985 1.22955C1.19315 1.33894 0.89627 1.52261 0.652555 1.76613C0.408841 2.00965 0.224931 2.30638 0.115283 2.633C8.29882e-09 2.97885 0 3.40545 0 4.25977C0 4.31268 6.22411e-09 4.33941 0.00724002 4.36058C0.0140773 4.38106 0.025587 4.39968 0.0408591 4.41495C0.0561312 4.43022 0.0747468 4.44173 0.095234 4.44857C0.116397 4.45581 0.143129 4.45581 0.196594 4.45581H9.82804C9.8815 4.45581 9.90824 4.45581 9.9294 4.44857C9.94989 4.44173 9.9685 4.43022 9.98377 4.41495C9.99905 4.39968 10.0106 4.38106 10.0174 4.36058C10.0246 4.33886 10.0246 4.31212 10.0246 4.25866C10.0246 3.40489 10.0246 2.97773 9.90935 2.63355C9.79985 2.30674 9.616 2.00978 9.37228 1.76606C9.12856 1.52234 8.83161 1.33849 8.50479 1.22899C8.31376 1.16495 8.09712 1.13654 7.79694 1.12373V2.50602C7.79694 2.72758 7.70892 2.94006 7.55226 3.09673C7.39559 3.25339 7.18311 3.3414 6.96155 3.3414C6.73999 3.3414 6.52751 3.25339 6.37084 3.09673C6.21418 2.94006 6.12617 2.72758 6.12617 2.50602V1.11371H3.89847V2.50602C3.89847 2.72758 3.81046 2.94006 3.65379 3.09673C3.49712 3.25339 3.28464 3.3414 3.06308 3.3414C2.84152 3.3414 2.62904 3.25339 2.47238 3.09673C2.31571 2.94006 2.2277 2.72758 2.2277 2.50602V1.12373Z" fill="#EEBE00"/>
<path d="M0 5.29085C0 5.15942 -2.48964e-08 5.0937 0.0406554 5.05305C0.0813109 5.01239 0.147028 5.01239 0.278462 5.01239H9.74617C9.87761 5.01239 9.94332 5.01239 9.98398 5.05305C10.0246 5.0937 10.0246 5.15942 10.0246 5.29085V5.56931C10.0246 7.66948 10.0246 8.71983 9.37192 9.37199C8.7192 10.0241 7.6694 10.0247 5.56924 10.0247H4.45539C2.35523 10.0247 1.30487 10.0247 0.652715 9.37199C0.000556884 8.71928 0 7.66948 0 5.56931V5.29085Z" fill="#EEBE00" fill-opacity="0.25"/>
<path d="M3.06274 0.278442V2.50614M6.96121 0.278442V2.50614" stroke="#EEBE00" stroke-width="0.556924" stroke-linecap="round"/>
</svg>
