<svg width="29" height="15" viewBox="0 0 29 15" fill="none" xmlns="http://www.w3.org/2000/svg">
<path fill-rule="evenodd" clip-rule="evenodd" d="M24.0531 11.6117C24.0531 10.9246 23.4961 10.3676 22.809 10.3676C22.1219 10.3676 21.5649 10.9246 21.5649 11.6117C21.5649 12.2988 22.1219 12.8559 22.809 12.8559C23.4961 12.8559 24.0531 12.2988 24.0531 11.6117ZM19.906 11.6117C19.906 10.0085 21.2057 8.7088 22.809 8.7088C24.4122 8.7088 25.7119 10.0085 25.7119 11.6117C25.7119 13.215 24.4122 14.5147 22.809 14.5147C21.2057 14.5147 19.906 13.215 19.906 11.6117ZM7.87955 11.6117C7.87955 10.9246 7.32254 10.3676 6.63544 10.3676C5.94834 10.3676 5.39134 10.9246 5.39134 11.6117C5.39134 12.2988 5.94834 12.8559 6.63544 12.8559C7.32254 12.8559 7.87955 12.2988 7.87955 11.6117ZM3.73249 11.6117C3.73249 10.0085 5.03217 8.7088 6.63544 8.7088C8.23871 8.7088 9.53839 10.0085 9.53839 11.6117C9.53839 13.215 8.23871 14.5147 6.63544 14.5147C5.03217 14.5147 3.73249 13.215 3.73249 11.6117Z" fill="#68737A"/>
<path fill-rule="evenodd" clip-rule="evenodd" d="M2.90314 11.6121H0.829615C0.371531 11.6121 0.00019455 11.2408 0.00019455 10.7827V5.80623C0.00019455 5.34814 0.371531 4.97681 0.829615 4.97681H21.5649C21.6041 4.97681 21.6433 4.97962 21.6822 4.98512L27.4881 5.81455C27.8967 5.87293 28.2002 6.22289 28.2002 6.63565V10.7827C28.2002 11.2408 27.8289 11.6121 27.3708 11.6121H26.5414C26.5414 9.55082 24.8703 7.87975 22.809 7.87975C20.7476 7.87975 19.0766 9.55077 19.0766 11.6121H10.3678C10.3678 9.55082 8.69675 7.87975 6.6354 7.87975C4.57405 7.87975 2.90314 9.55077 2.90314 11.6121Z" fill="#68737A"/>
<path fill-rule="evenodd" clip-rule="evenodd" d="M17.418 1.65884H6.15289L1.41617 6.39237C1.09226 6.71628 0.567087 6.71628 0.243227 6.39237C-0.0806866 6.06845 -0.0806866 5.54328 0.243227 5.21942L5.2197 0.242949C5.37524 0.0874087 5.58619 0 5.80617 0H17.8327C18.0938 0 18.3396 0.122934 18.4962 0.331791L22.2286 5.30826C22.5034 5.6747 22.4292 6.19458 22.0627 6.46942C21.6962 6.74426 21.1764 6.67002 20.9015 6.30353L17.418 1.65884Z" fill="#68737A"/>
</svg>
