<svg width="9" height="9" viewBox="0 0 9 9" fill="none" xmlns="http://www.w3.org/2000/svg">
<path d="M0 7.97143V3.34286C0 3.18 0.0365142 3.02572 0.109543 2.88C0.182571 2.73429 0.2832 2.61429 0.411429 2.52L3.49714 0.205714C3.67714 0.0685715 3.88286 0 4.11429 0C4.34572 0 4.55143 0.0685715 4.73143 0.205714L7.81715 2.52C7.94572 2.61429 8.04652 2.73429 8.11954 2.88C8.19257 3.02572 8.22892 3.18 8.22857 3.34286V7.97143C8.22857 8.25429 8.12777 8.49652 7.92617 8.69812C7.72457 8.89972 7.48252 9.00034 7.2 9H5.65714C5.51143 9 5.38937 8.95063 5.29097 8.85189C5.19257 8.75314 5.1432 8.63109 5.14286 8.48572V5.91429C5.14286 5.76857 5.09349 5.64652 4.99474 5.54812C4.896 5.44972 4.77394 5.40034 4.62857 5.4H3.6C3.45429 5.4 3.33223 5.44937 3.23383 5.54812C3.13543 5.64686 3.08606 5.76892 3.08572 5.91429V8.48572C3.08572 8.63143 3.03634 8.75366 2.9376 8.8524C2.83886 8.95114 2.7168 9.00034 2.57143 9H1.02857C0.745714 9 0.503657 8.89937 0.3024 8.69812C0.101143 8.49686 0.000342857 8.25463 0 7.97143Z" fill="#1867D2"/>
</svg>
