<svg width="16" height="16" viewBox="0 0 16 16" fill="none" xmlns="http://www.w3.org/2000/svg">
<path d="M9.06676 5.86667H2.13343C1.99198 5.86667 1.85633 5.81048 1.75631 5.71046C1.65629 5.61044 1.6001 5.47479 1.6001 5.33334C1.6001 5.19189 1.65629 5.05623 1.75631 4.95621C1.85633 4.85619 1.99198 4.8 2.13343 4.8H9.06676C9.20821 4.8 9.34387 4.85619 9.44389 4.95621C9.54391 5.05623 9.6001 5.19189 9.6001 5.33334C9.6001 5.47479 9.54391 5.61044 9.44389 5.71046C9.34387 5.81048 9.20821 5.86667 9.06676 5.86667ZM13.8668 5.86667H11.7334C11.592 5.86667 11.4563 5.81048 11.3563 5.71046C11.2563 5.61044 11.2001 5.47479 11.2001 5.33334C11.2001 5.19189 11.2563 5.05623 11.3563 4.95621C11.4563 4.85619 11.592 4.8 11.7334 4.8H13.8668C14.0082 4.8 14.1439 4.85619 14.2439 4.95621C14.3439 5.05623 14.4001 5.19189 14.4001 5.33334C14.4001 5.47479 14.3439 5.61044 14.2439 5.71046C14.1439 5.81048 14.0082 5.86667 13.8668 5.86667Z" fill="#2B81F6"/>
<path d="M10.4001 7.19999C10.0309 7.19999 9.67 7.09052 9.36303 6.8854C9.05606 6.68029 8.81681 6.38876 8.67552 6.04767C8.53424 5.70658 8.49727 5.33126 8.5693 4.96916C8.64132 4.60706 8.81911 4.27445 9.08016 4.01339C9.34122 3.75234 9.67383 3.57455 10.0359 3.50253C10.398 3.4305 10.7734 3.46747 11.1144 3.60875C11.4555 3.75004 11.7471 3.98929 11.9522 4.29626C12.1573 4.60323 12.2668 4.96414 12.2668 5.33333C12.2668 5.8284 12.0701 6.30319 11.72 6.65326C11.37 7.00333 10.8952 7.19999 10.4001 7.19999ZM10.4001 4.53333C10.2419 4.53333 10.0872 4.58025 9.95564 4.66815C9.82408 4.75606 9.72155 4.881 9.66099 5.02718C9.60044 5.17336 9.5846 5.33421 9.61547 5.4894C9.64634 5.64458 9.72253 5.78713 9.83441 5.89901C9.94629 6.01089 10.0888 6.08709 10.244 6.11796C10.3992 6.14882 10.5601 6.13298 10.7062 6.07243C10.8524 6.01188 10.9774 5.90934 11.0653 5.77778C11.1532 5.64622 11.2001 5.49155 11.2001 5.33333C11.2001 5.12115 11.1158 4.91767 10.9658 4.76764C10.8158 4.61761 10.6123 4.53333 10.4001 4.53333ZM13.8668 11.2H6.93343C6.79198 11.2 6.65633 11.1438 6.55631 11.0438C6.45629 10.9438 6.4001 10.8081 6.4001 10.6667C6.4001 10.5252 6.45629 10.3896 6.55631 10.2895C6.65633 10.1895 6.79198 10.1333 6.93343 10.1333H13.8668C14.0082 10.1333 14.1439 10.1895 14.2439 10.2895C14.3439 10.3896 14.4001 10.5252 14.4001 10.6667C14.4001 10.8081 14.3439 10.9438 14.2439 11.0438C14.1439 11.1438 14.0082 11.2 13.8668 11.2ZM4.26676 11.2H2.13343C1.99198 11.2 1.85633 11.1438 1.75631 11.0438C1.65629 10.9438 1.6001 10.8081 1.6001 10.6667C1.6001 10.5252 1.65629 10.3896 1.75631 10.2895C1.85633 10.1895 1.99198 10.1333 2.13343 10.1333H4.26676C4.40821 10.1333 4.54387 10.1895 4.64389 10.2895C4.74391 10.3896 4.8001 10.5252 4.8001 10.6667C4.8001 10.8081 4.74391 10.9438 4.64389 11.0438C4.54387 11.1438 4.40821 11.2 4.26676 11.2Z" fill="#2B81F6"/>
<path d="M5.60007 12.5333C5.23087 12.5333 4.86997 12.4239 4.563 12.2187C4.25603 12.0136 4.01677 11.7221 3.87549 11.381C3.73421 11.0399 3.69724 10.6646 3.76927 10.3025C3.84129 9.9404 4.01908 9.6078 4.28013 9.34674C4.54119 9.08568 4.8738 8.9079 5.2359 8.83587C5.59799 8.76385 5.97332 8.80081 6.31441 8.9421C6.6555 9.08338 6.94703 9.32263 7.15214 9.62961C7.35725 9.93658 7.46673 10.2975 7.46673 10.6667C7.46673 11.1617 7.27007 11.6365 6.92 11.9866C6.56993 12.3367 6.09514 12.5333 5.60007 12.5333ZM5.60007 9.86667C5.44184 9.86667 5.28717 9.91359 5.15561 10.0015C5.02405 10.0894 4.92151 10.2143 4.86096 10.3605C4.80041 10.5067 4.78457 10.6676 4.81544 10.8227C4.84631 10.9779 4.9225 11.1205 5.03438 11.2324C5.14626 11.3442 5.28881 11.4204 5.44399 11.4513C5.59918 11.4822 5.76003 11.4663 5.90621 11.4058C6.05239 11.3452 6.17734 11.2427 6.26524 11.1111C6.35315 10.9796 6.40007 10.8249 6.40007 10.6667C6.40007 10.4545 6.31578 10.251 6.16575 10.101C6.01572 9.95096 5.81224 9.86667 5.60007 9.86667Z" fill="#2B81F6"/>
</svg>
