<svg width="23" height="23" viewBox="0 0 23 23" fill="none" xmlns="http://www.w3.org/2000/svg">
<path d="M17.2286 8.95888C17.2286 7.31393 16.5752 5.73636 15.412 4.57321C14.2489 3.41006 12.6713 2.75661 11.0263 2.75661C9.38141 2.75661 7.80383 3.41006 6.64068 4.57321C5.47753 5.73636 4.82408 7.31393 4.82408 8.95888C4.82408 11.5032 6.8598 14.8193 11.0263 18.7915C15.1929 14.8193 17.2286 11.5032 17.2286 8.95888ZM11.0263 20.6743C5.97219 16.0805 3.4458 12.1744 3.4458 8.95888C3.4458 6.94839 4.24446 5.02025 5.66609 3.59862C7.08772 2.17699 9.01586 1.37833 11.0263 1.37833C13.0368 1.37833 14.965 2.17699 16.3866 3.59862C17.8082 5.02025 18.6069 6.94839 18.6069 8.95888C18.6069 12.1744 16.0805 16.0805 11.0263 20.6743Z" fill="#EEB600"/>
<path d="M11.0263 11.0263C11.5746 11.0263 12.1004 10.8085 12.4882 10.4208C12.8759 10.0331 13.0937 9.5072 13.0937 8.95889C13.0937 8.41057 12.8759 7.88472 12.4882 7.497C12.1004 7.10928 11.5746 6.89147 11.0263 6.89147C10.478 6.89147 9.9521 7.10928 9.56438 7.497C9.17666 7.88472 8.95885 8.41057 8.95885 8.95889C8.95885 9.5072 9.17666 10.0331 9.56438 10.4208C9.9521 10.8085 10.478 11.0263 11.0263 11.0263ZM11.0263 12.4046C10.1124 12.4046 9.23598 12.0416 8.58979 11.3954C7.94359 10.7492 7.58057 9.87275 7.58057 8.95889C7.58057 8.04503 7.94359 7.1686 8.58979 6.52241C9.23598 5.87621 10.1124 5.51318 11.0263 5.51318C11.9401 5.51318 12.8166 5.87621 13.4628 6.52241C14.1089 7.1686 14.472 8.04503 14.472 8.95889C14.472 9.87275 14.1089 10.7492 13.4628 11.3954C12.8166 12.0416 11.9401 12.4046 11.0263 12.4046Z" fill="#EEB600"/>
</svg>
