<svg width="16" height="18" viewBox="0 0 16 18" fill="none" xmlns="http://www.w3.org/2000/svg">
<path d="M3 6.41422L8 1.41422M8 1.41422L13 6.41422M8 1.41422V7.91422" stroke="white" stroke-width="2"/>
<path fill-rule="evenodd" clip-rule="evenodd" d="M7 9.41422V12.9142C7 13.1794 7.10536 13.4338 7.29289 13.6213C7.48043 13.8089 7.73478 13.9142 8 13.9142C8.26522 13.9142 8.51957 13.8089 8.70711 13.6213C8.89464 13.4338 9 13.1794 9 12.9142V9.41422H14C14.5304 9.41422 15.0391 9.62493 15.4142 10C15.7893 10.3751 16 10.8838 16 11.4142V15.4142C16 15.9446 15.7893 16.4534 15.4142 16.8284C15.0391 17.2035 14.5304 17.4142 14 17.4142H2C1.46957 17.4142 0.960859 17.2035 0.585786 16.8284C0.210714 16.4534 0 15.9446 0 15.4142V11.4142C0 10.8838 0.210714 10.3751 0.585786 10C0.960859 9.62493 1.46957 9.41422 2 9.41422H7Z" fill="white"/>
</svg>
