<svg width="19" height="19" viewBox="0 0 19 19" fill="none" xmlns="http://www.w3.org/2000/svg">
<g clip-path="url(#clip0_1_3591)">
<path d="M16.9222 4.75C16.6805 4.75006 16.4425 4.80914 16.2288 4.92209C16.0151 5.03504 15.8323 5.19845 15.6961 5.39813C15.56 5.59781 15.4746 5.82771 15.4475 6.06787C15.4204 6.30802 15.4524 6.55117 15.5406 6.77617L12.4171 9.89967C12.0689 9.76261 11.6817 9.76261 11.3335 9.89967L9.10061 7.6668C9.18903 7.44174 9.22112 7.19849 9.19411 6.9582C9.1671 6.71792 9.08179 6.48786 8.94562 6.28806C8.80944 6.08825 8.62651 5.92473 8.41274 5.81173C8.19897 5.69872 7.96083 5.63965 7.71903 5.63965C7.47723 5.63965 7.23909 5.69872 7.02531 5.81173C6.81154 5.92473 6.62862 6.08825 6.49244 6.28806C6.35626 6.48786 6.27096 6.71792 6.24394 6.9582C6.21693 7.19849 6.24903 7.44174 6.33745 7.6668L2.6202 11.384C2.30274 11.2595 1.95208 11.2481 1.62718 11.3517C1.30228 11.4553 1.02296 11.6676 0.83619 11.9529C0.649416 12.2382 0.566577 12.5792 0.601603 12.9184C0.636628 13.2576 0.787382 13.5744 1.02852 13.8155C1.26965 14.0566 1.58646 14.2074 1.92567 14.2424C2.26488 14.2774 2.6058 14.1946 2.89112 14.0078C3.17644 13.8211 3.38875 13.5417 3.49235 13.2168C3.59595 12.892 3.58452 12.5413 3.45998 12.2238L7.17723 8.50658C7.52543 8.64365 7.91263 8.64365 8.26082 8.50658L10.4937 10.7395C10.4053 10.9645 10.3732 11.2078 10.4002 11.448C10.4272 11.6883 10.5125 11.9184 10.6487 12.1182C10.7849 12.318 10.9678 12.4815 11.1816 12.5945C11.3953 12.7075 11.6335 12.7666 11.8753 12.7666C12.1171 12.7666 12.3552 12.7075 12.569 12.5945C12.7828 12.4815 12.9657 12.318 13.1019 12.1182C13.238 11.9184 13.3234 11.6883 13.3504 11.448C13.3774 11.2078 13.3453 10.9645 13.2569 10.7395L16.3804 7.61596C16.5836 7.69581 16.802 7.72983 17.0199 7.71559C17.2378 7.70136 17.4499 7.63922 17.641 7.5336C17.8322 7.42798 17.9977 7.28149 18.1257 7.10458C18.2537 6.92766 18.3411 6.72468 18.3817 6.51011C18.4222 6.29553 18.415 6.07465 18.3603 5.86321C18.3057 5.65177 18.2052 5.45498 18.0658 5.28688C17.9264 5.11878 17.7516 4.9835 17.5539 4.8907C17.3563 4.7979 17.1405 4.74986 16.9222 4.75Z" fill="#4AD991"/>
</g>
<defs>
<clipPath id="clip0_1_3591">
<rect width="19" height="19" fill="white"/>
</clipPath>
</defs>
</svg>
