<svg width="22" height="22" viewBox="0 0 22 22" fill="none" xmlns="http://www.w3.org/2000/svg">
<path d="M18.5625 9.91289C18.1291 9.72258 17.6608 9.62454 17.1875 9.625H4.8125C4.3392 9.62453 3.87097 9.72242 3.4375 9.91246C2.82485 10.1804 2.30353 10.621 1.93724 11.1804C1.57096 11.7398 1.37559 12.3938 1.375 13.0625V17.875C1.375 18.0573 1.44743 18.2322 1.57636 18.3611C1.7053 18.4901 1.88016 18.5625 2.0625 18.5625C2.24484 18.5625 2.4197 18.4901 2.54864 18.3611C2.67757 18.2322 2.75 18.0573 2.75 17.875V17.5312C2.75111 17.4404 2.78769 17.3536 2.85191 17.2894C2.91614 17.2252 3.00293 17.1886 3.09375 17.1875H18.9062C18.9971 17.1886 19.0839 17.2252 19.1481 17.2894C19.2123 17.3536 19.2489 17.4404 19.25 17.5312V17.875C19.25 18.0573 19.3224 18.2322 19.4514 18.3611C19.5803 18.4901 19.7552 18.5625 19.9375 18.5625C20.1198 18.5625 20.2947 18.4901 20.4236 18.3611C20.5526 18.2322 20.625 18.0573 20.625 17.875V13.0625C20.6243 12.3939 20.4289 11.74 20.0626 11.1806C19.6964 10.6213 19.1751 10.1808 18.5625 9.91289ZM16.1562 3.4375H5.84375C5.20557 3.4375 4.59353 3.69102 4.14227 4.14227C3.69102 4.59353 3.4375 5.20557 3.4375 5.84375V8.9375C3.43752 8.96413 3.44373 8.9904 3.45564 9.01422C3.46755 9.03805 3.48483 9.05878 3.50612 9.07478C3.52741 9.09078 3.55213 9.10161 3.57833 9.10642C3.60453 9.11123 3.63148 9.10989 3.65707 9.1025C4.03238 8.99273 4.42146 8.93717 4.8125 8.9375H4.99426C5.03668 8.93777 5.07771 8.92234 5.10944 8.89418C5.14117 8.86602 5.16136 8.82712 5.16613 8.78496C5.20363 8.44903 5.36356 8.13868 5.61537 7.91318C5.86718 7.68768 6.19323 7.56284 6.53125 7.5625H8.9375C9.27574 7.56253 9.60211 7.68722 9.85419 7.91275C10.1063 8.13828 10.2664 8.44881 10.3039 8.78496C10.3087 8.82712 10.3289 8.86602 10.3606 8.89418C10.3923 8.92234 10.4334 8.93777 10.4758 8.9375H11.5268C11.5692 8.93777 11.6102 8.92234 11.642 8.89418C11.6737 8.86602 11.6939 8.82712 11.6987 8.78496C11.7361 8.44925 11.8959 8.13908 12.1474 7.91361C12.399 7.68814 12.7247 7.56316 13.0625 7.5625H15.4688C15.807 7.56253 16.1334 7.68722 16.3854 7.91275C16.6375 8.13828 16.7976 8.44881 16.8352 8.78496C16.8399 8.82712 16.8601 8.86602 16.8919 8.89418C16.9236 8.92234 16.9646 8.93777 17.007 8.9375H17.1875C17.5786 8.93731 17.9676 8.99301 18.3429 9.10293C18.3686 9.11033 18.3955 9.11167 18.4218 9.10683C18.448 9.102 18.4727 9.09113 18.4941 9.07508C18.5154 9.05903 18.5326 9.03824 18.5445 9.01437C18.5564 8.99049 18.5625 8.96417 18.5625 8.9375V5.84375C18.5625 5.20557 18.309 4.59353 17.8577 4.14227C17.4065 3.69102 16.7944 3.4375 16.1562 3.4375Z" fill="#5EA9FF"/>
</svg>
