<svg width="880" height="628" viewBox="0 0 880 628" fill="none" xmlns="http://www.w3.org/2000/svg">
<g style="mix-blend-mode:overlay" opacity="0.7">
<path d="M-333.079 -216.659H-374.526V-172.25M-333.079 -216.659V-172.25M-333.079 -216.659H-291.633M-333.079 -172.25H-374.526M-333.079 -172.25V-127.841M-333.079 -172.25H-291.633M-374.526 -172.25V-127.841M-333.079 -127.841H-374.526M-333.079 -127.841V-83.4317M-333.079 -127.841H-291.633M-374.526 -127.841V-83.4317M-333.079 -83.4317H-374.526M-333.079 -83.4317V-39.0226M-333.079 -83.4317H-291.633M-374.526 -83.4317V-39.0226M-333.079 -39.0226H-374.526M-333.079 -39.0226V5.38636M-333.079 -39.0226H-291.633M-374.526 -39.0226V5.38636M-333.079 5.38636H-374.526M-333.079 5.38636V49.7954M-333.079 5.38636H-291.633M-374.526 5.38636V49.7954M-333.079 49.7954H-374.526M-333.079 49.7954V94.2044M-333.079 49.7954H-291.633M-374.526 49.7954V94.2044M-333.079 94.2044H-374.526M-333.079 94.2044V138.613M-333.079 94.2044H-291.633M-374.526 94.2044V138.613M-333.079 138.613H-374.526M-333.079 138.613V183.022M-333.079 138.613H-291.633M-374.526 138.613V183.022M-333.079 183.022H-374.526M-333.079 183.022V227.431M-333.079 183.022H-291.633M-374.526 183.022V227.431M-333.079 227.431H-374.526M-333.079 227.431V271.84M-333.079 227.431H-291.633M-374.526 227.431V271.84M-333.079 271.84H-374.526M-333.079 271.84V316.249M-333.079 271.84H-291.633M-374.526 271.84V316.249M-333.079 316.249H-374.526M-333.079 316.249V360.658M-333.079 316.249H-291.633M-374.526 316.249V360.658M-333.079 360.658H-374.526M-333.079 360.658V405.068M-333.079 360.658H-291.633M-374.526 360.658V405.068M-333.079 405.068H-374.526M-333.079 405.068V449.476M-333.079 405.068H-291.633M-374.526 405.068V449.476M-333.079 449.476H-374.526M-333.079 449.476V493.886M-333.079 449.476H-291.633M-374.526 449.476V493.886M-333.079 493.886H-374.526M-333.079 493.886V538.295M-333.079 493.886H-291.633M-374.526 493.886V538.295M-333.079 538.295H-374.526M-333.079 538.295V582.704M-333.079 538.295H-291.633M-374.526 538.295V582.704M-333.079 582.704H-374.526M-333.079 582.704V627.113M-333.079 582.704H-291.633M-374.526 582.704V627.113H-333.079M-333.079 627.113H-291.633M-291.633 -216.659V-172.25M-291.633 -216.659H-250.187M-291.633 -172.25V-127.841M-291.633 -172.25H-250.187M-291.633 -127.841V-83.4317M-291.633 -127.841H-250.187M-291.633 -83.4317V-39.0226M-291.633 -83.4317H-250.187M-291.633 -39.0226V5.38636M-291.633 -39.0226H-250.187M-291.633 5.38636V49.7954M-291.633 5.38636H-250.187M-291.633 49.7954V94.2044M-291.633 49.7954H-250.187M-291.633 94.2044V138.613M-291.633 94.2044H-250.187M-291.633 138.613V183.022M-291.633 138.613H-250.187M-291.633 183.022V227.431M-291.633 183.022H-250.187M-291.633 227.431V271.84M-291.633 227.431H-250.187M-291.633 271.84V316.249M-291.633 271.84H-250.187M-291.633 316.249V360.658M-291.633 316.249H-250.187M-291.633 360.658V405.068M-291.633 360.658H-250.187M-291.633 405.068V449.476M-291.633 405.068H-250.187M-291.633 449.476V493.886M-291.633 449.476H-250.187M-291.633 493.886V538.295M-291.633 493.886H-250.187M-291.633 538.295V582.704M-291.633 538.295H-250.187M-291.633 582.704V627.113M-291.633 582.704H-250.187M-291.633 627.113H-250.187M-250.187 -216.659V-172.25M-250.187 -216.659H-208.741M-250.187 -172.25V-127.841M-250.187 -172.25H-208.741M-250.187 -127.841V-83.4317M-250.187 -127.841H-208.741M-250.187 -83.4317V-39.0226M-250.187 -83.4317H-208.741M-250.187 -39.0226V5.38636M-250.187 -39.0226H-208.741M-250.187 5.38636V49.7954M-250.187 5.38636H-208.741M-250.187 49.7954V94.2044M-250.187 49.7954H-208.741M-250.187 94.2044V138.613M-250.187 94.2044H-208.741M-250.187 138.613V183.022M-250.187 138.613H-208.741M-250.187 183.022V227.431M-250.187 183.022H-208.741M-250.187 227.431V271.84M-250.187 227.431H-208.741M-250.187 271.84V316.249M-250.187 271.84H-208.741M-250.187 316.249V360.658M-250.187 316.249H-208.741M-250.187 360.658V405.068M-250.187 360.658H-208.741M-250.187 405.068V449.476M-250.187 405.068H-208.741M-250.187 449.476V493.886M-250.187 449.476H-208.741M-250.187 493.886V538.295M-250.187 493.886H-208.741M-250.187 538.295V582.704M-250.187 538.295H-208.741M-250.187 582.704V627.113M-250.187 582.704H-208.741M-250.187 627.113H-208.741M-208.741 -216.659V-172.25M-208.741 -216.659H-167.294M-208.741 -172.25V-127.841M-208.741 -172.25H-167.294M-208.741 -127.841V-83.4317M-208.741 -127.841H-167.294M-208.741 -83.4317V-39.0226M-208.741 -83.4317H-167.294M-208.741 -39.0226V5.38636M-208.741 -39.0226H-167.294M-208.741 5.38636V49.7954M-208.741 5.38636H-167.294M-208.741 49.7954V94.2044M-208.741 49.7954H-167.294M-208.741 94.2044V138.613M-208.741 94.2044H-167.294M-208.741 138.613V183.022M-208.741 138.613H-167.294M-208.741 183.022V227.431M-208.741 183.022H-167.294M-208.741 227.431V271.84M-208.741 227.431H-167.294M-208.741 271.84V316.249M-208.741 271.84H-167.294M-208.741 316.249V360.658M-208.741 316.249H-167.294M-208.741 360.658V405.068M-208.741 360.658H-167.294M-208.741 405.068V449.476M-208.741 405.068H-167.294M-208.741 449.476V493.886M-208.741 449.476H-167.294M-208.741 493.886V538.295M-208.741 493.886H-167.294M-208.741 538.295V582.704M-208.741 538.295H-167.294M-208.741 582.704V627.113M-208.741 582.704H-167.294M-208.741 627.113H-167.294M-167.294 -216.659V-172.25M-167.294 -216.659H-125.848M-167.294 -172.25V-127.841M-167.294 -172.25H-125.848M-167.294 -127.841V-83.4317M-167.294 -127.841H-125.848M-167.294 -83.4317V-39.0226M-167.294 -83.4317H-125.848M-167.294 -39.0226V5.38636M-167.294 -39.0226H-125.848M-167.294 5.38636V49.7954M-167.294 5.38636H-125.848M-167.294 49.7954V94.2044M-167.294 49.7954H-125.848M-167.294 94.2044V138.613M-167.294 94.2044H-125.848M-167.294 138.613V183.022M-167.294 138.613H-125.848M-167.294 183.022V227.431M-167.294 183.022H-125.848M-167.294 227.431V271.84M-167.294 227.431H-125.848M-167.294 271.84V316.249M-167.294 271.84H-125.848M-167.294 316.249V360.658M-167.294 316.249H-125.848M-167.294 360.658V405.068M-167.294 360.658H-125.848M-167.294 405.068V449.476M-167.294 405.068H-125.848M-167.294 449.476V493.886M-167.294 449.476H-125.848M-167.294 493.886V538.295M-167.294 493.886H-125.848M-167.294 538.295V582.704M-167.294 538.295H-125.848M-167.294 582.704V627.113M-167.294 582.704H-125.848M-167.294 627.113H-125.848M-125.848 -216.659V-172.25M-125.848 -216.659H-84.4019M-125.848 -172.25V-127.841M-125.848 -172.25H-84.4019M-125.848 -127.841V-83.4317M-125.848 -127.841H-84.4019M-125.848 -83.4317V-39.0226M-125.848 -83.4317H-84.4019M-125.848 -39.0226V5.38636M-125.848 -39.0226H-84.4019M-125.848 5.38636V49.7954M-125.848 5.38636H-84.4019M-125.848 49.7954V94.2044M-125.848 49.7954H-84.4019M-125.848 94.2044V138.613M-125.848 94.2044H-84.4019M-125.848 138.613V183.022M-125.848 138.613H-84.4019M-125.848 183.022V227.431M-125.848 183.022H-84.4019M-125.848 227.431V271.84M-125.848 227.431H-84.4019M-125.848 271.84V316.249M-125.848 271.84H-84.4019M-125.848 316.249V360.658M-125.848 316.249H-84.4019M-125.848 360.658V405.068M-125.848 360.658H-84.4019M-125.848 405.068V449.476M-125.848 405.068H-84.4019M-125.848 449.476V493.886M-125.848 449.476H-84.4019M-125.848 493.886V538.295M-125.848 493.886H-84.4019M-125.848 538.295V582.704M-125.848 538.295H-84.4019M-125.848 582.704V627.113M-125.848 582.704H-84.4019M-125.848 627.113H-84.4019M-84.4019 -216.659V-172.25M-84.4019 -216.659H-42.9557M-84.4019 -172.25V-127.841M-84.4019 -172.25H-42.9557M-84.4019 -127.841V-83.4317M-84.4019 -127.841H-42.9557M-84.4019 -83.4317V-39.0226M-84.4019 -83.4317H-42.9557M-84.4019 -39.0226V5.38636M-84.4019 -39.0226H-42.9557M-84.4019 5.38636V49.7954M-84.4019 5.38636H-42.9557M-84.4019 49.7954V94.2044M-84.4019 49.7954H-42.9557M-84.4019 94.2044V138.613M-84.4019 94.2044H-42.9557M-84.4019 138.613V183.022M-84.4019 138.613H-42.9557M-84.4019 183.022V227.431M-84.4019 183.022H-42.9557M-84.4019 227.431V271.84M-84.4019 227.431H-42.9557M-84.4019 271.84V316.249M-84.4019 271.84H-42.9557M-84.4019 316.249V360.658M-84.4019 316.249H-42.9557M-84.4019 360.658V405.068M-84.4019 360.658H-42.9557M-84.4019 405.068V449.476M-84.4019 405.068H-42.9557M-84.4019 449.476V493.886M-84.4019 449.476H-42.9557M-84.4019 493.886V538.295M-84.4019 493.886H-42.9557M-84.4019 538.295V582.704M-84.4019 538.295H-42.9557M-84.4019 582.704V627.113M-84.4019 582.704H-42.9557M-84.4019 627.113H-42.9557M-42.9557 -216.659V-172.25M-42.9557 -216.659H-1.50946M-42.9557 -172.25V-127.841M-42.9557 -172.25H-1.50946M-42.9557 -127.841V-83.4317M-42.9557 -127.841H-1.50946M-42.9557 -83.4317V-39.0226M-42.9557 -83.4317H-1.50946M-42.9557 -39.0226V5.38636M-42.9557 -39.0226H-1.50946M-42.9557 5.38636V49.7954M-42.9557 5.38636H-1.50946M-42.9557 49.7954V94.2044M-42.9557 49.7954H-1.50946M-42.9557 94.2044V138.613M-42.9557 94.2044H-1.50946M-42.9557 138.613V183.022M-42.9557 138.613H-1.50946M-42.9557 183.022V227.431M-42.9557 183.022H-1.50946M-42.9557 227.431V271.84M-42.9557 227.431H-1.50946M-42.9557 271.84V316.249M-42.9557 271.84H-1.50946M-42.9557 316.249V360.658M-42.9557 316.249H-1.50946M-42.9557 360.658V405.068M-42.9557 360.658H-1.50946M-42.9557 405.068V449.476M-42.9557 405.068H-1.50946M-42.9557 449.476V493.886M-42.9557 449.476H-1.50946M-42.9557 493.886V538.295M-42.9557 493.886H-1.50946M-42.9557 538.295V582.704M-42.9557 538.295H-1.50946M-42.9557 582.704V627.113M-42.9557 582.704H-1.50946M-42.9557 627.113H-1.50946M-1.50946 -216.659V-172.25M-1.50946 -216.659H39.9368M-1.50946 -172.25V-127.841M-1.50946 -172.25H39.9368M-1.50946 -127.841V-83.4317M-1.50946 -127.841H39.9368M-1.50946 -83.4317V-39.0226M-1.50946 -83.4317H39.9368M-1.50946 -39.0226V5.38636M-1.50946 -39.0226H39.9368M-1.50946 5.38636V49.7954M-1.50946 5.38636H39.9368M-1.50946 49.7954V94.2044M-1.50946 49.7954H39.9368M-1.50946 94.2044V138.613M-1.50946 94.2044H39.9368M-1.50946 138.613V183.022M-1.50946 138.613H39.9368M-1.50946 183.022V227.431M-1.50946 183.022H39.9368M-1.50946 227.431V271.84M-1.50946 227.431H39.9368M-1.50946 271.84V316.249M-1.50946 271.84H39.9368M-1.50946 316.249V360.658M-1.50946 316.249H39.9368M-1.50946 360.658V405.068M-1.50946 360.658H39.9368M-1.50946 405.068V449.476M-1.50946 405.068H39.9368M-1.50946 449.476V493.886M-1.50946 449.476H39.9368M-1.50946 493.886V538.295M-1.50946 493.886H39.9368M-1.50946 538.295V582.704M-1.50946 538.295H39.9368M-1.50946 582.704V627.113M-1.50946 582.704H39.9368M-1.50946 627.113H39.9368M39.9368 -216.659V-172.25M39.9368 -216.659H81.383M39.9368 -172.25V-127.841M39.9368 -172.25H81.383M39.9368 -127.841V-83.4317M39.9368 -127.841H81.383M39.9368 -83.4317V-39.0226M39.9368 -83.4317H81.383M39.9368 -39.0226V5.38636M39.9368 -39.0226H81.383M39.9368 5.38636V49.7954M39.9368 5.38636H81.383M39.9368 49.7954V94.2044M39.9368 49.7954H81.383M39.9368 94.2044V138.613M39.9368 94.2044H81.383M39.9368 138.613V183.022M39.9368 138.613H81.383M39.9368 183.022V227.431M39.9368 183.022H81.383M39.9368 227.431V271.84M39.9368 227.431H81.383M39.9368 271.84V316.249M39.9368 271.84H81.383M39.9368 316.249V360.658M39.9368 316.249H81.383M39.9368 360.658V405.068M39.9368 360.658H81.383M39.9368 405.068V449.476M39.9368 405.068H81.383M39.9368 449.476V493.886M39.9368 449.476H81.383M39.9368 493.886V538.295M39.9368 493.886H81.383M39.9368 538.295V582.704M39.9368 538.295H81.383M39.9368 582.704V627.113M39.9368 582.704H81.383M39.9368 627.113H81.383M81.383 -216.659V-172.25M81.383 -216.659H122.829M81.383 -172.25V-127.841M81.383 -172.25H122.829M81.383 -127.841V-83.4317M81.383 -127.841H122.829M81.383 -83.4317V-39.0226M81.383 -83.4317H122.829M81.383 -39.0226V5.38636M81.383 -39.0226H122.829M81.383 5.38636V49.7954M81.383 5.38636H122.829M81.383 49.7954V94.2044M81.383 49.7954H122.829M81.383 94.2044V138.613M81.383 94.2044H122.829M81.383 138.613V183.022M81.383 138.613H122.829M81.383 183.022V227.431M81.383 183.022H122.829M81.383 227.431V271.84M81.383 227.431H122.829M81.383 271.84V316.249M81.383 271.84H122.829M81.383 316.249V360.658M81.383 316.249H122.829M81.383 360.658V405.068M81.383 360.658H122.829M81.383 405.068V449.476M81.383 405.068H122.829M81.383 449.476V493.886M81.383 449.476H122.829M81.383 493.886V538.295M81.383 493.886H122.829M81.383 538.295V582.704M81.383 538.295H122.829M81.383 582.704V627.113M81.383 582.704H122.829M81.383 627.113H122.829M122.829 -216.659V-172.25M122.829 -216.659H164.276M122.829 -172.25V-127.841M122.829 -172.25H164.276M122.829 -127.841V-83.4317M122.829 -127.841H164.276M122.829 -83.4317V-39.0226M122.829 -83.4317H164.276M122.829 -39.0226V5.38636M122.829 -39.0226H164.276M122.829 5.38636V49.7954M122.829 5.38636H164.276M122.829 49.7954V94.2044M122.829 49.7954H164.276M122.829 94.2044V138.613M122.829 94.2044H164.276M122.829 138.613V183.022M122.829 138.613H164.276M122.829 183.022V227.431M122.829 183.022H164.276M122.829 227.431V271.84M122.829 227.431H164.276M122.829 271.84V316.249M122.829 271.84H164.276M122.829 316.249V360.658M122.829 316.249H164.276M122.829 360.658V405.068M122.829 360.658H164.276M122.829 405.068V449.476M122.829 405.068H164.276M122.829 449.476V493.886M122.829 449.476H164.276M122.829 493.886V538.295M122.829 493.886H164.276M122.829 538.295V582.704M122.829 538.295H164.276M122.829 582.704V627.113M122.829 582.704H164.276M122.829 627.113H164.276M164.276 -216.659V-172.25M164.276 -216.659H205.722M164.276 -172.25V-127.841M164.276 -172.25H205.722M164.276 -127.841V-83.4317M164.276 -127.841H205.722M164.276 -83.4317V-39.0226M164.276 -83.4317H205.722M164.276 -39.0226V5.38636M164.276 -39.0226H205.722M164.276 5.38636V49.7954M164.276 5.38636H205.722M164.276 49.7954V94.2044M164.276 49.7954H205.722M164.276 94.2044V138.613M164.276 94.2044H205.722M164.276 138.613V183.022M164.276 138.613H205.722M164.276 183.022V227.431M164.276 183.022H205.722M164.276 227.431V271.84M164.276 227.431H205.722M164.276 271.84V316.249M164.276 271.84H205.722M164.276 316.249V360.658M164.276 316.249H205.722M164.276 360.658V405.068M164.276 360.658H205.722M164.276 405.068V449.476M164.276 405.068H205.722M164.276 449.476V493.886M164.276 449.476H205.722M164.276 493.886V538.295M164.276 493.886H205.722M164.276 538.295V582.704M164.276 538.295H205.722M164.276 582.704V627.113M164.276 582.704H205.722M164.276 627.113H205.722M205.722 -216.659V-172.25M205.722 -216.659H247.168M205.722 -172.25V-127.841M205.722 -172.25H247.168M205.722 -127.841V-83.4317M205.722 -127.841H247.168M205.722 -83.4317V-39.0226M205.722 -83.4317H247.168M205.722 -39.0226V5.38636M205.722 -39.0226H247.168M205.722 5.38636V49.7954M205.722 5.38636H247.168M205.722 49.7954V94.2044M205.722 49.7954H247.168M205.722 94.2044V138.613M205.722 94.2044H247.168M205.722 138.613V183.022M205.722 138.613H247.168M205.722 183.022V227.431M205.722 183.022H247.168M205.722 227.431V271.84M205.722 227.431H247.168M205.722 271.84V316.249M205.722 271.84H247.168M205.722 316.249V360.658M205.722 316.249H247.168M205.722 360.658V405.068M205.722 360.658H247.168M205.722 405.068V449.476M205.722 405.068H247.168M205.722 449.476V493.886M205.722 449.476H247.168M205.722 493.886V538.295M205.722 493.886H247.168M205.722 538.295V582.704M205.722 538.295H247.168M205.722 582.704V627.113M205.722 582.704H247.168M205.722 627.113H247.168M247.168 -216.659V-172.25M247.168 -216.659H288.614M247.168 -172.25V-127.841M247.168 -172.25H288.614M247.168 -127.841V-83.4317M247.168 -127.841H288.614M247.168 -83.4317V-39.0226M247.168 -83.4317H288.614M247.168 -39.0226V5.38636M247.168 -39.0226H288.614M247.168 5.38636V49.7954M247.168 5.38636H288.614M247.168 49.7954V94.2044M247.168 49.7954H288.614M247.168 94.2044V138.613M247.168 94.2044H288.614M247.168 138.613V183.022M247.168 138.613H288.614M247.168 183.022V227.431M247.168 183.022H288.614M247.168 227.431V271.84M247.168 227.431H288.614M247.168 271.84V316.249M247.168 271.84H288.614M247.168 316.249V360.658M247.168 316.249H288.614M247.168 360.658V405.068M247.168 360.658H288.614M247.168 405.068V449.476M247.168 405.068H288.614M247.168 449.476V493.886M247.168 449.476H288.614M247.168 493.886V538.295M247.168 493.886H288.614M247.168 538.295V582.704M247.168 538.295H288.614M247.168 582.704V627.113M247.168 582.704H288.614M247.168 627.113H288.614M288.614 -216.659V-172.25M288.614 -216.659H330.06M288.614 -172.25V-127.841M288.614 -172.25H330.06M288.614 -127.841V-83.4317M288.614 -127.841H330.06M288.614 -83.4317V-39.0226M288.614 -83.4317H330.06M288.614 -39.0226V5.38636M288.614 -39.0226H330.06M288.614 5.38636V49.7954M288.614 5.38636H330.06M288.614 49.7954V94.2044M288.614 49.7954H330.06M288.614 94.2044V138.613M288.614 94.2044H330.06M288.614 138.613V183.022M288.614 138.613H330.06M288.614 183.022V227.431M288.614 183.022H330.06M288.614 227.431V271.84M288.614 227.431H330.06M288.614 271.84V316.249M288.614 271.84H330.06M288.614 316.249V360.658M288.614 316.249H330.06M288.614 360.658V405.068M288.614 360.658H330.06M288.614 405.068V449.476M288.614 405.068H330.06M288.614 449.476V493.886M288.614 449.476H330.06M288.614 493.886V538.295M288.614 493.886H330.06M288.614 538.295V582.704M288.614 538.295H330.06M288.614 582.704V627.113M288.614 582.704H330.06M288.614 627.113H330.06M330.06 -216.659V-172.25M330.06 -216.659H371.507M330.06 -172.25V-127.841M330.06 -172.25H371.507M330.06 -127.841V-83.4317M330.06 -127.841H371.507M330.06 -83.4317V-39.0226M330.06 -83.4317H371.507M330.06 -39.0226V5.38636M330.06 -39.0226H371.507M330.06 5.38636V49.7954M330.06 5.38636H371.507M330.06 49.7954V94.2044M330.06 49.7954H371.507M330.06 94.2044V138.613M330.06 94.2044H371.507M330.06 138.613V183.022M330.06 138.613H371.507M330.06 183.022V227.431M330.06 183.022H371.507M330.06 227.431V271.84M330.06 227.431H371.507M330.06 271.84V316.249M330.06 271.84H371.507M330.06 316.249V360.658M330.06 316.249H371.507M330.06 360.658V405.068M330.06 360.658H371.507M330.06 405.068V449.476M330.06 405.068H371.507M330.06 449.476V493.886M330.06 449.476H371.507M330.06 493.886V538.295M330.06 493.886H371.507M330.06 538.295V582.704M330.06 538.295H371.507M330.06 582.704V627.113M330.06 582.704H371.507M330.06 627.113H371.507M371.507 -216.659V-172.25M371.507 -216.659H412.953M371.507 -172.25V-127.841M371.507 -172.25H412.953M371.507 -127.841V-83.4317M371.507 -127.841H412.953M371.507 -83.4317V-39.0226M371.507 -83.4317H412.953M371.507 -39.0226V5.38636M371.507 -39.0226H412.953M371.507 5.38636V49.7954M371.507 5.38636H412.953M371.507 49.7954V94.2044M371.507 49.7954H412.953M371.507 94.2044V138.613M371.507 94.2044H412.953M371.507 138.613V183.022M371.507 138.613H412.953M371.507 183.022V227.431M371.507 183.022H412.953M371.507 227.431V271.84M371.507 227.431H412.953M371.507 271.84V316.249M371.507 271.84H412.953M371.507 316.249V360.658M371.507 316.249H412.953M371.507 360.658V405.068M371.507 360.658H412.953M371.507 405.068V449.476M371.507 405.068H412.953M371.507 449.476V493.886M371.507 449.476H412.953M371.507 493.886V538.295M371.507 493.886H412.953M371.507 538.295V582.704M371.507 538.295H412.953M371.507 582.704V627.113M371.507 582.704H412.953M371.507 627.113H412.953M412.953 -216.659V-172.25M412.953 -216.659H454.399M412.953 -172.25V-127.841M412.953 -172.25H454.399M412.953 -127.841V-83.4317M412.953 -127.841H454.399M412.953 -83.4317V-39.0226M412.953 -83.4317H454.399M412.953 -39.0226V5.38636M412.953 -39.0226H454.399M412.953 5.38636V49.7954M412.953 5.38636H454.399M412.953 49.7954V94.2044M412.953 49.7954H454.399M412.953 94.2044V138.613M412.953 94.2044H454.399M412.953 138.613V183.022M412.953 138.613H454.399M412.953 183.022V227.431M412.953 183.022H454.399M412.953 227.431V271.84M412.953 227.431H454.399M412.953 271.84V316.249M412.953 271.84H454.399M412.953 316.249V360.658M412.953 316.249H454.399M412.953 360.658V405.068M412.953 360.658H454.399M412.953 405.068V449.476M412.953 405.068H454.399M412.953 449.476V493.886M412.953 449.476H454.399M412.953 493.886V538.295M412.953 493.886H454.399M412.953 538.295V582.704M412.953 538.295H454.399M412.953 582.704V627.113M412.953 582.704H454.399M412.953 627.113H454.399M454.399 -216.659V-172.25M454.399 -216.659H495.845M454.399 -172.25V-127.841M454.399 -172.25H495.845M454.399 -127.841V-83.4317M454.399 -127.841H495.845M454.399 -83.4317V-39.0226M454.399 -83.4317H495.845M454.399 -39.0226V5.38636M454.399 -39.0226H495.845M454.399 5.38636V49.7954M454.399 5.38636H495.845M454.399 49.7954V94.2044M454.399 49.7954H495.845M454.399 94.2044V138.613M454.399 94.2044H495.845M454.399 138.613V183.022M454.399 138.613H495.845M454.399 183.022V227.431M454.399 183.022H495.845M454.399 227.431V271.84M454.399 227.431H495.845M454.399 271.84V316.249M454.399 271.84H495.845M454.399 316.249V360.658M454.399 316.249H495.845M454.399 360.658V405.068M454.399 360.658H495.845M454.399 405.068V449.476M454.399 405.068H495.845M454.399 449.476V493.886M454.399 449.476H495.845M454.399 493.886V538.295M454.399 493.886H495.845M454.399 538.295V582.704M454.399 538.295H495.845M454.399 582.704V627.113M454.399 582.704H495.845M454.399 627.113H495.845M495.845 -216.659V-172.25M495.845 -216.659H537.292M495.845 -172.25V-127.841M495.845 -172.25H537.292M495.845 -127.841V-83.4317M495.845 -127.841H537.292M495.845 -83.4317V-39.0226M495.845 -83.4317H537.292M495.845 -39.0226V5.38636M495.845 -39.0226H537.292M495.845 5.38636V49.7954M495.845 5.38636H537.292M495.845 49.7954V94.2044M495.845 49.7954H537.292M495.845 94.2044V138.613M495.845 94.2044H537.292M495.845 138.613V183.022M495.845 138.613H537.292M495.845 183.022V227.431M495.845 183.022H537.292M495.845 227.431V271.84M495.845 227.431H537.292M495.845 271.84V316.249M495.845 271.84H537.292M495.845 316.249V360.658M495.845 316.249H537.292M495.845 360.658V405.068M495.845 360.658H537.292M495.845 405.068V449.476M495.845 405.068H537.292M495.845 449.476V493.886M495.845 449.476H537.292M495.845 493.886V538.295M495.845 493.886H537.292M495.845 538.295V582.704M495.845 538.295H537.292M495.845 582.704V627.113M495.845 582.704H537.292M495.845 627.113H537.292M537.292 -216.659V-172.25M537.292 -216.659H578.738M537.292 -172.25V-127.841M537.292 -172.25H578.738M537.292 -127.841V-83.4317M537.292 -127.841H578.738M537.292 -83.4317V-39.0226M537.292 -83.4317H578.738M537.292 -39.0226V5.38636M537.292 -39.0226H578.738M537.292 5.38636V49.7954M537.292 5.38636H578.738M537.292 49.7954V94.2044M537.292 49.7954H578.738M537.292 94.2044V138.613M537.292 94.2044H578.738M537.292 138.613V183.022M537.292 138.613H578.738M537.292 183.022V227.431M537.292 183.022H578.738M537.292 227.431V271.84M537.292 227.431H578.738M537.292 271.84V316.249M537.292 271.84H578.738M537.292 316.249V360.658M537.292 316.249H578.738M537.292 360.658V405.068M537.292 360.658H578.738M537.292 405.068V449.476M537.292 405.068H578.738M537.292 449.476V493.886M537.292 449.476H578.738M537.292 493.886V538.295M537.292 493.886H578.738M537.292 538.295V582.704M537.292 538.295H578.738M537.292 582.704V627.113M537.292 582.704H578.738M537.292 627.113H578.738M578.738 -216.659V-172.25M578.738 -216.659H620.184M578.738 -172.25V-127.841M578.738 -172.25H620.184M578.738 -127.841V-83.4317M578.738 -127.841H620.184M578.738 -83.4317V-39.0226M578.738 -83.4317H620.184M578.738 -39.0226V5.38636M578.738 -39.0226H620.184M578.738 5.38636V49.7954M578.738 5.38636H620.184M578.738 49.7954V94.2044M578.738 49.7954H620.184M578.738 94.2044V138.613M578.738 94.2044H620.184M578.738 138.613V183.022M578.738 138.613H620.184M578.738 183.022V227.431M578.738 183.022H620.184M578.738 227.431V271.84M578.738 227.431H620.184M578.738 271.84V316.249M578.738 271.84H620.184M578.738 316.249V360.658M578.738 316.249H620.184M578.738 360.658V405.068M578.738 360.658H620.184M578.738 405.068V449.476M578.738 405.068H620.184M578.738 449.476V493.886M578.738 449.476H620.184M578.738 493.886V538.295M578.738 493.886H620.184M578.738 538.295V582.704M578.738 538.295H620.184M578.738 582.704V627.113M578.738 582.704H620.184M578.738 627.113H620.184M620.184 -216.659V-172.25M620.184 -216.659H661.63M620.184 -172.25V-127.841M620.184 -172.25H661.63M620.184 -127.841V-83.4317M620.184 -127.841H661.63M620.184 -83.4317V-39.0226M620.184 -83.4317H661.63M620.184 -39.0226V5.38636M620.184 -39.0226H661.63M620.184 5.38636V49.7954M620.184 5.38636H661.63M620.184 49.7954V94.2044M620.184 49.7954H661.63M620.184 94.2044V138.613M620.184 94.2044H661.63M620.184 138.613V183.022M620.184 138.613H661.63M620.184 183.022V227.431M620.184 183.022H661.63M620.184 227.431V271.84M620.184 227.431H661.63M620.184 271.84V316.249M620.184 271.84H661.63M620.184 316.249V360.658M620.184 316.249H661.63M620.184 360.658V405.068M620.184 360.658H661.63M620.184 405.068V449.476M620.184 405.068H661.63M620.184 449.476V493.886M620.184 449.476H661.63M620.184 493.886V538.295M620.184 493.886H661.63M620.184 538.295V582.704M620.184 538.295H661.63M620.184 582.704V627.113M620.184 582.704H661.63M620.184 627.113H661.63M661.63 -216.659V-172.25M661.63 -216.659H703.077M661.63 -172.25V-127.841M661.63 -172.25H703.077M661.63 -127.841V-83.4317M661.63 -127.841H703.077M661.63 -83.4317V-39.0226M661.63 -83.4317H703.077M661.63 -39.0226V5.38636M661.63 -39.0226H703.077M661.63 5.38636V49.7954M661.63 5.38636H703.077M661.63 49.7954V94.2044M661.63 49.7954H703.077M661.63 94.2044V138.613M661.63 94.2044H703.077M661.63 138.613V183.022M661.63 138.613H703.077M661.63 183.022V227.431M661.63 183.022H703.077M661.63 227.431V271.84M661.63 227.431H703.077M661.63 271.84V316.249M661.63 271.84H703.077M661.63 316.249V360.658M661.63 316.249H703.077M661.63 360.658V405.068M661.63 360.658H703.077M661.63 405.068V449.476M661.63 405.068H703.077M661.63 449.476V493.886M661.63 449.476H703.077M661.63 493.886V538.295M661.63 493.886H703.077M661.63 538.295V582.704M661.63 538.295H703.077M661.63 582.704V627.113M661.63 582.704H703.077M661.63 627.113H703.077M703.077 -216.659V-172.25M703.077 -216.659H744.523M703.077 -172.25V-127.841M703.077 -172.25H744.523M703.077 -127.841V-83.4317M703.077 -127.841H744.523M703.077 -83.4317V-39.0226M703.077 -83.4317H744.523M703.077 -39.0226V5.38636M703.077 -39.0226H744.523M703.077 5.38636V49.7954M703.077 5.38636H744.523M703.077 49.7954V94.2044M703.077 49.7954H744.523M703.077 94.2044V138.613M703.077 94.2044H744.523M703.077 138.613V183.022M703.077 138.613H744.523M703.077 183.022V227.431M703.077 183.022H744.523M703.077 227.431V271.84M703.077 227.431H744.523M703.077 271.84V316.249M703.077 271.84H744.523M703.077 316.249V360.658M703.077 316.249H744.523M703.077 360.658V405.068M703.077 360.658H744.523M703.077 405.068V449.476M703.077 405.068H744.523M703.077 449.476V493.886M703.077 449.476H744.523M703.077 493.886V538.295M703.077 493.886H744.523M703.077 538.295V582.704M703.077 538.295H744.523M703.077 582.704V627.113M703.077 582.704H744.523M703.077 627.113H744.523M744.523 -216.659V-172.25M744.523 -216.659H785.969M744.523 -172.25V-127.841M744.523 -172.25H785.969M744.523 -127.841V-83.4317M744.523 -127.841H785.969M744.523 -83.4317V-39.0226M744.523 -83.4317H785.969M744.523 -39.0226V5.38636M744.523 -39.0226H785.969M744.523 5.38636V49.7954M744.523 5.38636H785.969M744.523 49.7954V94.2044M744.523 49.7954H785.969M744.523 94.2044V138.613M744.523 94.2044H785.969M744.523 138.613V183.022M744.523 138.613H785.969M744.523 183.022V227.431M744.523 183.022H785.969M744.523 227.431V271.84M744.523 227.431H785.969M744.523 271.84V316.249M744.523 271.84H785.969M744.523 316.249V360.658M744.523 316.249H785.969M744.523 360.658V405.068M744.523 360.658H785.969M744.523 405.068V449.476M744.523 405.068H785.969M744.523 449.476V493.886M744.523 449.476H785.969M744.523 493.886V538.295M744.523 493.886H785.969M744.523 538.295V582.704M744.523 538.295H785.969M744.523 582.704V627.113M744.523 582.704H785.969M744.523 627.113H785.969M785.969 -216.659V-172.25M785.969 -216.659H827.415M785.969 -172.25V-127.841M785.969 -172.25H827.415M785.969 -127.841V-83.4317M785.969 -127.841H827.415M785.969 -83.4317V-39.0226M785.969 -83.4317H827.415M785.969 -39.0226V5.38636M785.969 -39.0226H827.415M785.969 5.38636V49.7954M785.969 5.38636H827.415M785.969 49.7954V94.2044M785.969 49.7954H827.415M785.969 94.2044V138.613M785.969 94.2044H827.415M785.969 138.613V183.022M785.969 138.613H827.415M785.969 183.022V227.431M785.969 183.022H827.415M785.969 227.431V271.84M785.969 227.431H827.415M785.969 271.84V316.249M785.969 271.84H827.415M785.969 316.249V360.658M785.969 316.249H827.415M785.969 360.658V405.068M785.969 360.658H827.415M785.969 405.068V449.476M785.969 405.068H827.415M785.969 449.476V493.886M785.969 449.476H827.415M785.969 493.886V538.295M785.969 493.886H827.415M785.969 538.295V582.704M785.969 538.295H827.415M785.969 582.704V627.113M785.969 582.704H827.415M785.969 627.113H827.415M827.415 -216.659V-172.25M827.415 -216.659H868.862M827.415 -172.25V-127.841M827.415 -172.25H868.862M827.415 -127.841V-83.4317M827.415 -127.841H868.862M827.415 -83.4317V-39.0226M827.415 -83.4317H868.862M827.415 -39.0226V5.38636M827.415 -39.0226H868.862M827.415 5.38636V49.7954M827.415 5.38636H868.862M827.415 49.7954V94.2044M827.415 49.7954H868.862M827.415 94.2044V138.613M827.415 94.2044H868.862M827.415 138.613V183.022M827.415 138.613H868.862M827.415 183.022V227.431M827.415 183.022H868.862M827.415 227.431V271.84M827.415 227.431H868.862M827.415 271.84V316.249M827.415 271.84H868.862M827.415 316.249V360.658M827.415 316.249H868.862M827.415 360.658V405.068M827.415 360.658H868.862M827.415 405.068V449.476M827.415 405.068H868.862M827.415 449.476V493.886M827.415 449.476H868.862M827.415 493.886V538.295M827.415 493.886H868.862M827.415 538.295V582.704M827.415 538.295H868.862M827.415 582.704V627.113M827.415 582.704H868.862M827.415 627.113H868.862M868.862 -216.659V-172.25M868.862 -216.659H910.308M868.862 -172.25V-127.841M868.862 -172.25H910.308M868.862 -127.841V-83.4317M868.862 -127.841H910.308M868.862 -83.4317V-39.0226M868.862 -83.4317H910.308M868.862 -39.0226V5.38636M868.862 -39.0226H910.308M868.862 5.38636V49.7954M868.862 5.38636H910.308M868.862 49.7954V94.2044M868.862 49.7954H910.308M868.862 94.2044V138.613M868.862 94.2044H910.308M868.862 138.613V183.022M868.862 138.613H910.308M868.862 183.022V227.431M868.862 183.022H910.308M868.862 227.431V271.84M868.862 227.431H910.308M868.862 271.84V316.249M868.862 271.84H910.308M868.862 316.249V360.658M868.862 316.249H910.308M868.862 360.658V405.068M868.862 360.658H910.308M868.862 405.068V449.476M868.862 405.068H910.308M868.862 449.476V493.886M868.862 449.476H910.308M868.862 493.886V538.295M868.862 493.886H910.308M868.862 538.295V582.704M868.862 538.295H910.308M868.862 582.704V627.113M868.862 582.704H910.308M868.862 627.113H910.308M910.308 -216.659V-172.25M910.308 -216.659H951.754M910.308 -172.25V-127.841M910.308 -172.25H951.754M910.308 -127.841V-83.4317M910.308 -127.841H951.754M910.308 -83.4317V-39.0226M910.308 -83.4317H951.754M910.308 -39.0226V5.38636M910.308 -39.0226H951.754M910.308 5.38636V49.7954M910.308 5.38636H951.754M910.308 49.7954V94.2044M910.308 49.7954H951.754M910.308 94.2044V138.613M910.308 94.2044H951.754M910.308 138.613V183.022M910.308 138.613H951.754M910.308 183.022V227.431M910.308 183.022H951.754M910.308 227.431V271.84M910.308 227.431H951.754M910.308 271.84V316.249M910.308 271.84H951.754M910.308 316.249V360.658M910.308 316.249H951.754M910.308 360.658V405.068M910.308 360.658H951.754M910.308 405.068V449.476M910.308 405.068H951.754M910.308 449.476V493.886M910.308 449.476H951.754M910.308 493.886V538.295M910.308 493.886H951.754M910.308 538.295V582.704M910.308 538.295H951.754M910.308 582.704V627.113M910.308 582.704H951.754M910.308 627.113H951.754M951.754 -216.659V-172.25M951.754 -216.659H993.2M951.754 -172.25V-127.841M951.754 -172.25H993.2M951.754 -127.841V-83.4317M951.754 -127.841H993.2M951.754 -83.4317V-39.0226M951.754 -83.4317H993.2M951.754 -39.0226V5.38636M951.754 -39.0226H993.2M951.754 5.38636V49.7954M951.754 5.38636H993.2M951.754 49.7954V94.2044M951.754 49.7954H993.2M951.754 94.2044V138.613M951.754 94.2044H993.2M951.754 138.613V183.022M951.754 138.613H993.2M951.754 183.022V227.431M951.754 183.022H993.2M951.754 227.431V271.84M951.754 227.431H993.2M951.754 271.84V316.249M951.754 271.84H993.2M951.754 316.249V360.658M951.754 316.249H993.2M951.754 360.658V405.068M951.754 360.658H993.2M951.754 405.068V449.476M951.754 405.068H993.2M951.754 449.476V493.886M951.754 449.476H993.2M951.754 493.886V538.295M951.754 493.886H993.2M951.754 538.295V582.704M951.754 538.295H993.2M951.754 582.704V627.113M951.754 582.704H993.2M951.754 627.113H993.2M993.2 -216.659V-172.25M993.2 -216.659H1034.65M993.2 -172.25V-127.841M993.2 -172.25H1034.65M993.2 -127.841V-83.4317M993.2 -127.841H1034.65M993.2 -83.4317V-39.0226M993.2 -83.4317H1034.65M993.2 -39.0226V5.38636M993.2 -39.0226H1034.65M993.2 5.38636V49.7954M993.2 5.38636H1034.65M993.2 49.7954V94.2044M993.2 49.7954H1034.65M993.2 94.2044V138.613M993.2 94.2044H1034.65M993.2 138.613V183.022M993.2 138.613H1034.65M993.2 183.022V227.431M993.2 183.022H1034.65M993.2 227.431V271.84M993.2 227.431H1034.65M993.2 271.84V316.249M993.2 271.84H1034.65M993.2 316.249V360.658M993.2 316.249H1034.65M993.2 360.658V405.068M993.2 360.658H1034.65M993.2 405.068V449.476M993.2 405.068H1034.65M993.2 449.476V493.886M993.2 449.476H1034.65M993.2 493.886V538.295M993.2 493.886H1034.65M993.2 538.295V582.704M993.2 538.295H1034.65M993.2 582.704V627.113M993.2 582.704H1034.65M993.2 627.113H1034.65M1034.65 -216.659V-172.25M1034.65 -216.659H1076.09M1034.65 -172.25V-127.841M1034.65 -172.25H1076.09M1034.65 -127.841V-83.4317M1034.65 -127.841H1076.09M1034.65 -83.4317V-39.0226M1034.65 -83.4317H1076.09M1034.65 -39.0226V5.38636M1034.65 -39.0226H1076.09M1034.65 5.38636V49.7954M1034.65 5.38636H1076.09M1034.65 49.7954V94.2044M1034.65 49.7954H1076.09M1034.65 94.2044V138.613M1034.65 94.2044H1076.09M1034.65 138.613V183.022M1034.65 138.613H1076.09M1034.65 183.022V227.431M1034.65 183.022H1076.09M1034.65 227.431V271.84M1034.65 227.431H1076.09M1034.65 271.84V316.249M1034.65 271.84H1076.09M1034.65 316.249V360.658M1034.65 316.249H1076.09M1034.65 360.658V405.068M1034.65 360.658H1076.09M1034.65 405.068V449.476M1034.65 405.068H1076.09M1034.65 449.476V493.886M1034.65 449.476H1076.09M1034.65 493.886V538.295M1034.65 493.886H1076.09M1034.65 538.295V582.704M1034.65 538.295H1076.09M1034.65 582.704V627.113M1034.65 582.704H1076.09M1034.65 627.113H1076.09M1076.09 -216.659V-172.25M1076.09 -216.659H1117.54M1076.09 -172.25V-127.841M1076.09 -172.25H1117.54M1076.09 -127.841V-83.4317M1076.09 -127.841H1117.54M1076.09 -83.4317V-39.0226M1076.09 -83.4317H1117.54M1076.09 -39.0226V5.38636M1076.09 -39.0226H1117.54M1076.09 5.38636V49.7954M1076.09 5.38636H1117.54M1076.09 49.7954V94.2044M1076.09 49.7954H1117.54M1076.09 94.2044V138.613M1076.09 94.2044H1117.54M1076.09 138.613V183.022M1076.09 138.613H1117.54M1076.09 183.022V227.431M1076.09 183.022H1117.54M1076.09 227.431V271.84M1076.09 227.431H1117.54M1076.09 271.84V316.249M1076.09 271.84H1117.54M1076.09 316.249V360.658M1076.09 316.249H1117.54M1076.09 360.658V405.068M1076.09 360.658H1117.54M1076.09 405.068V449.476M1076.09 405.068H1117.54M1076.09 449.476V493.886M1076.09 449.476H1117.54M1076.09 493.886V538.295M1076.09 493.886H1117.54M1076.09 538.295V582.704M1076.09 538.295H1117.54M1076.09 582.704V627.113M1076.09 582.704H1117.54M1076.09 627.113H1117.54M1117.54 -216.659V-172.25M1117.54 -216.659H1158.99M1117.54 -172.25V-127.841M1117.54 -172.25H1158.99M1117.54 -127.841V-83.4317M1117.54 -127.841H1158.99M1117.54 -83.4317V-39.0226M1117.54 -83.4317H1158.99M1117.54 -39.0226V5.38636M1117.54 -39.0226H1158.99M1117.54 5.38636V49.7954M1117.54 5.38636H1158.99M1117.54 49.7954V94.2044M1117.54 49.7954H1158.99M1117.54 94.2044V138.613M1117.54 94.2044H1158.99M1117.54 138.613V183.022M1117.54 138.613H1158.99M1117.54 183.022V227.431M1117.54 183.022H1158.99M1117.54 227.431V271.84M1117.54 227.431H1158.99M1117.54 271.84V316.249M1117.54 271.84H1158.99M1117.54 316.249V360.658M1117.54 316.249H1158.99M1117.54 360.658V405.068M1117.54 360.658H1158.99M1117.54 405.068V449.476M1117.54 405.068H1158.99M1117.54 449.476V493.886M1117.54 449.476H1158.99M1117.54 493.886V538.295M1117.54 493.886H1158.99M1117.54 538.295V582.704M1117.54 538.295H1158.99M1117.54 582.704V627.113M1117.54 582.704H1158.99M1117.54 627.113H1158.99M1158.99 -216.659V-172.25M1158.99 -216.659H1200.43M1158.99 -172.25V-127.841M1158.99 -172.25H1200.43M1158.99 -127.841V-83.4317M1158.99 -127.841H1200.43M1158.99 -83.4317V-39.0226M1158.99 -83.4317H1200.43M1158.99 -39.0226V5.38636M1158.99 -39.0226H1200.43M1158.99 5.38636V49.7954M1158.99 5.38636H1200.43M1158.99 49.7954V94.2044M1158.99 49.7954H1200.43M1158.99 94.2044V138.613M1158.99 94.2044H1200.43M1158.99 138.613V183.022M1158.99 138.613H1200.43M1158.99 183.022V227.431M1158.99 183.022H1200.43M1158.99 227.431V271.84M1158.99 227.431H1200.43M1158.99 271.84V316.249M1158.99 271.84H1200.43M1158.99 316.249V360.658M1158.99 316.249H1200.43M1158.99 360.658V405.068M1158.99 360.658H1200.43M1158.99 405.068V449.476M1158.99 405.068H1200.43M1158.99 449.476V493.886M1158.99 449.476H1200.43M1158.99 493.886V538.295M1158.99 493.886H1200.43M1158.99 538.295V582.704M1158.99 538.295H1200.43M1158.99 582.704V627.113M1158.99 582.704H1200.43M1158.99 627.113H1200.43M1200.43 -216.659V-172.25M1200.43 -216.659H1241.88M1200.43 -172.25V-127.841M1200.43 -172.25H1241.88M1200.43 -127.841V-83.4317M1200.43 -127.841H1241.88M1200.43 -83.4317V-39.0226M1200.43 -83.4317H1241.88M1200.43 -39.0226V5.38636M1200.43 -39.0226H1241.88M1200.43 5.38636V49.7954M1200.43 5.38636H1241.88M1200.43 49.7954V94.2044M1200.43 49.7954H1241.88M1200.43 94.2044V138.613M1200.43 94.2044H1241.88M1200.43 138.613V183.022M1200.43 138.613H1241.88M1200.43 183.022V227.431M1200.43 183.022H1241.88M1200.43 227.431V271.84M1200.43 227.431H1241.88M1200.43 271.84V316.249M1200.43 271.84H1241.88M1200.43 316.249V360.658M1200.43 316.249H1241.88M1200.43 360.658V405.068M1200.43 360.658H1241.88M1200.43 405.068V449.476M1200.43 405.068H1241.88M1200.43 449.476V493.886M1200.43 449.476H1241.88M1200.43 493.886V538.295M1200.43 493.886H1241.88M1200.43 538.295V582.704M1200.43 538.295H1241.88M1200.43 582.704V627.113M1200.43 582.704H1241.88M1200.43 627.113H1241.88M1241.88 -216.659V-172.25M1241.88 -216.659H1283.32M1241.88 -172.25V-127.841M1241.88 -172.25H1283.32M1241.88 -127.841V-83.4317M1241.88 -127.841H1283.32M1241.88 -83.4317V-39.0226M1241.88 -83.4317H1283.32M1241.88 -39.0226V5.38636M1241.88 -39.0226H1283.32M1241.88 5.38636V49.7954M1241.88 5.38636H1283.32M1241.88 49.7954V94.2044M1241.88 49.7954H1283.32M1241.88 94.2044V138.613M1241.88 94.2044H1283.32M1241.88 138.613V183.022M1241.88 138.613H1283.32M1241.88 183.022V227.431M1241.88 183.022H1283.32M1241.88 227.431V271.84M1241.88 227.431H1283.32M1241.88 271.84V316.249M1241.88 271.84H1283.32M1241.88 316.249V360.658M1241.88 316.249H1283.32M1241.88 360.658V405.068M1241.88 360.658H1283.32M1241.88 405.068V449.476M1241.88 405.068H1283.32M1241.88 449.476V493.886M1241.88 449.476H1283.32M1241.88 493.886V538.295M1241.88 493.886H1283.32M1241.88 538.295V582.704M1241.88 538.295H1283.32M1241.88 582.704V627.113M1241.88 582.704H1283.32M1241.88 627.113H1283.32M1283.32 -216.659V-172.25M1283.32 -216.659H1324.77M1283.32 -172.25V-127.841M1283.32 -172.25H1324.77M1283.32 -127.841V-83.4317M1283.32 -127.841H1324.77M1283.32 -83.4317V-39.0226M1283.32 -83.4317H1324.77M1283.32 -39.0226V5.38636M1283.32 -39.0226H1324.77M1283.32 5.38636V49.7954M1283.32 5.38636H1324.77M1283.32 49.7954V94.2044M1283.32 49.7954H1324.77M1283.32 94.2044V138.613M1283.32 94.2044H1324.77M1283.32 138.613V183.022M1283.32 138.613H1324.77M1283.32 183.022V227.431M1283.32 183.022H1324.77M1283.32 227.431V271.84M1283.32 227.431H1324.77M1283.32 271.84V316.249M1283.32 271.84H1324.77M1283.32 316.249V360.658M1283.32 316.249H1324.77M1283.32 360.658V405.068M1283.32 360.658H1324.77M1283.32 405.068V449.476M1283.32 405.068H1324.77M1283.32 449.476V493.886M1283.32 449.476H1324.77M1283.32 493.886V538.295M1283.32 493.886H1324.77M1283.32 538.295V582.704M1283.32 538.295H1324.77M1283.32 582.704V627.113M1283.32 582.704H1324.77M1283.32 627.113H1324.77M1324.77 -216.659V-172.25M1324.77 -216.659H1366.22M1324.77 -172.25V-127.841M1324.77 -172.25H1366.22M1324.77 -127.841V-83.4317M1324.77 -127.841H1366.22M1324.77 -83.4317V-39.0226M1324.77 -83.4317H1366.22M1324.77 -39.0226V5.38636M1324.77 -39.0226H1366.22M1324.77 5.38636V49.7954M1324.77 5.38636H1366.22M1324.77 49.7954V94.2044M1324.77 49.7954H1366.22M1324.77 94.2044V138.613M1324.77 94.2044H1366.22M1324.77 138.613V183.022M1324.77 138.613H1366.22M1324.77 183.022V227.431M1324.77 183.022H1366.22M1324.77 227.431V271.84M1324.77 227.431H1366.22M1324.77 271.84V316.249M1324.77 271.84H1366.22M1324.77 316.249V360.658M1324.77 316.249H1366.22M1324.77 360.658V405.068M1324.77 360.658H1366.22M1324.77 405.068V449.476M1324.77 405.068H1366.22M1324.77 449.476V493.886M1324.77 449.476H1366.22M1324.77 493.886V538.295M1324.77 493.886H1366.22M1324.77 538.295V582.704M1324.77 538.295H1366.22M1324.77 582.704V627.113M1324.77 582.704H1366.22M1324.77 627.113H1366.22M1366.22 -216.659V-172.25M1366.22 -216.659H1407.66M1366.22 -172.25V-127.841M1366.22 -172.25H1407.66M1366.22 -127.841V-83.4317M1366.22 -127.841H1407.66M1366.22 -83.4317V-39.0226M1366.22 -83.4317H1407.66M1366.22 -39.0226V5.38636M1366.22 -39.0226H1407.66M1366.22 5.38636V49.7954M1366.22 5.38636H1407.66M1366.22 49.7954V94.2044M1366.22 49.7954H1407.66M1366.22 94.2044V138.613M1366.22 94.2044H1407.66M1366.22 138.613V183.022M1366.22 138.613H1407.66M1366.22 183.022V227.431M1366.22 183.022H1407.66M1366.22 227.431V271.84M1366.22 227.431H1407.66M1366.22 271.84V316.249M1366.22 271.84H1407.66M1366.22 316.249V360.658M1366.22 316.249H1407.66M1366.22 360.658V405.068M1366.22 360.658H1407.66M1366.22 405.068V449.476M1366.22 405.068H1407.66M1366.22 449.476V493.886M1366.22 449.476H1407.66M1366.22 493.886V538.295M1366.22 493.886H1407.66M1366.22 538.295V582.704M1366.22 538.295H1407.66M1366.22 582.704V627.113M1366.22 582.704H1407.66M1366.22 627.113H1407.66M1407.66 -216.659V-172.25M1407.66 -216.659H1449.11V-172.25M1407.66 -172.25V-127.841M1407.66 -172.25H1449.11M1407.66 -127.841V-83.4317M1407.66 -127.841H1449.11M1407.66 -83.4317V-39.0226M1407.66 -83.4317H1449.11M1407.66 -39.0226V5.38636M1407.66 -39.0226H1449.11M1407.66 5.38636V49.7954M1407.66 5.38636H1449.11M1407.66 49.7954V94.2044M1407.66 49.7954H1449.11M1407.66 94.2044V138.613M1407.66 94.2044H1449.11M1407.66 138.613V183.022M1407.66 138.613H1449.11M1407.66 183.022V227.431M1407.66 183.022H1449.11M1407.66 227.431V271.84M1407.66 227.431H1449.11M1407.66 271.84V316.249M1407.66 271.84H1449.11M1407.66 316.249V360.658M1407.66 316.249H1449.11M1407.66 360.658V405.068M1407.66 360.658H1449.11M1407.66 405.068V449.476M1407.66 405.068H1449.11M1407.66 449.476V493.886M1407.66 449.476H1449.11M1407.66 493.886V538.295M1407.66 493.886H1449.11M1407.66 538.295V582.704M1407.66 538.295H1449.11M1407.66 582.704V627.113M1407.66 582.704H1449.11M1407.66 627.113H1449.11V582.704M1449.11 -172.25V-127.841M1449.11 -127.841V-83.4317M1449.11 -83.4317V-39.0226M1449.11 -39.0226V5.38636M1449.11 5.38636V49.7954M1449.11 49.7954V94.2044M1449.11 94.2044V138.613M1449.11 138.613V183.022M1449.11 183.022V227.431M1449.11 227.431V271.84M1449.11 271.84V316.249M1449.11 316.249V360.658M1449.11 360.658V405.068M1449.11 405.068V449.476M1449.11 449.476V493.886M1449.11 493.886V538.295M1449.11 538.295V582.704" stroke="url(#paint0_radial_1_3600)" stroke-width="0.94978"/>
</g>
<defs>
<radialGradient id="paint0_radial_1_3600" cx="0" cy="0" r="1" gradientUnits="userSpaceOnUse" gradientTransform="translate(537.292 205.227) rotate(90) scale(421.886 736.308)">
<stop stop-color="white"/>
<stop offset="1" stop-color="white" stop-opacity="0.2"/>
</radialGradient>
</defs>
</svg>
