<svg width="22" height="16" viewBox="0 0 22 16" fill="none" xmlns="http://www.w3.org/2000/svg">
<g clip-path="url(#clip0_1_3499)">
<path d="M20.9135 9.70899H20.3059V8.37141C20.3059 7.70292 19.7685 7.16109 19.1055 7.16109H18.378V6.79426C18.378 6.12581 17.8406 5.58398 17.1776 5.58398H16.3774C15.7144 5.58398 15.177 6.12581 15.177 6.79426V9.70899H6.81069V6.79426C6.81069 6.12581 6.27329 5.58398 5.61034 5.58398H4.81008C4.14709 5.58398 3.60973 6.12581 3.60973 6.79426V7.16109H2.88221C2.21922 7.16109 1.68181 7.70292 1.68181 8.37141V9.70899H1.07416C0.480905 9.70899 0 10.1938 0 10.7921C0 11.3902 0.480905 11.8751 1.07416 11.8751H1.68181V13.2494C1.68181 13.9179 2.21922 14.4597 2.88221 14.4597H3.60973V14.7898C3.60973 15.4582 4.14713 16.0001 4.81008 16.0001H5.61034C6.27329 16.0001 6.81069 15.4582 6.81069 14.7898V11.8751H15.177V14.7898C15.177 15.4582 15.7144 16.0001 16.3774 16.0001H17.1776C17.8406 16.0001 18.378 15.4582 18.378 14.7898V14.4597H19.1055C19.7685 14.4597 20.3058 13.9179 20.3058 13.2494V11.8751H20.9135C21.5068 11.8751 21.9877 11.3902 21.9877 10.7921C21.9877 10.1938 21.5068 9.70899 20.9135 9.70899Z" fill="#B445FF"/>
<path d="M6.40671 2.82966H7.00667V3.60934C6.94669 3.6362 6.79335 3.64964 6.62673 3.64964C5.89345 3.64964 5.35347 3.15899 5.35347 2.31206C5.35347 1.39124 5.96675 1.00142 6.70673 1.00142C7.21338 1.00142 7.51997 1.08207 7.77334 1.18961L8.01329 0.221741C7.77991 0.107541 7.31997 0 6.71335 0C5.26015 0 4.09353 0.799832 4.08691 2.3726C4.08691 3.02463 4.30689 3.60939 4.72687 4.01265C5.13354 4.40243 5.73315 4.6243 6.61342 4.6243C7.49363 4.6243 8.16659 4.33652 8.16659 4.33652V1.88873H6.40671V2.82966Z" fill="#B445FF"/>
<path d="M16.2217 0.0471191L15.4471 2.73298L14.6725 0.0471191H12.9512V4.57724H13.9899V1.12919L15.0099 4.57724H15.8843L16.9042 1.12919V4.57724H17.943V0.0471191H16.2217Z" fill="#B445FF"/>
<path d="M11.0734 0.0471191L10.4102 1.41069L9.74695 0.0471191H8.56641L9.8636 2.77216V4.57724H10.9567V2.77216L12.2539 0.0471191H11.0734Z" fill="#B445FF"/>
</g>
<defs>
<clipPath id="clip0_1_3499">
<rect width="21.9877" height="16" fill="white"/>
</clipPath>
</defs>
</svg>
