<svg width="24" height="24" viewBox="0 0 24 24" fill="none" xmlns="http://www.w3.org/2000/svg">
<g clip-path="url(#clip0_1_3389)">
<path d="M20.8634 6.2095C22.5671 6.2095 23.9533 4.82339 23.9533 3.11958C23.9533 1.41577 22.5672 0.0296631 20.8634 0.0296631C19.1596 0.0296631 17.7734 1.41581 17.7734 3.11958C17.7734 4.82335 19.1596 6.2095 20.8634 6.2095ZM20.8634 1.43313C21.7933 1.43313 22.5498 2.18966 22.5498 3.11958C22.5498 4.04945 21.7933 4.80599 20.8634 4.80599C19.9335 4.80599 19.1769 4.0495 19.1769 3.11958C19.1769 2.18966 19.9335 1.43313 20.8634 1.43313Z" fill="white"/>
<path d="M23.2982 22.5669H22.7969V16.3038C22.9286 16.4159 23.0901 16.4716 23.2512 16.4716C23.445 16.4716 23.6378 16.3918 23.7765 16.2355C24.0337 15.9456 24.0071 15.5021 23.7172 15.2449L21.66 13.42V9.7831C21.66 9.39555 21.3458 9.08135 20.9583 9.08135C20.5707 9.08135 20.2565 9.39555 20.2565 9.7831V12.175L16.5766 8.91054V5.27849C16.5766 2.38811 14.2251 0.0366211 11.3347 0.0366211C8.44435 0.0366211 6.09287 2.38811 6.09287 5.27849V6.80275C5.32468 5.37042 4.58395 4.3584 4.51986 4.27162C4.38756 4.09253 4.17811 3.98689 3.95546 3.98689C3.73282 3.98689 3.52337 4.09257 3.39106 4.27162C3.25446 4.45655 0.0452398 8.8428 0.0452398 12.5457C0.0452398 14.353 0.405661 16.0631 1.06012 17.3611C1.63743 18.5061 2.39972 19.2446 3.25371 19.5052V22.5668H0.701754C0.314199 22.5668 0 22.881 0 23.2686C0 23.6561 0.314199 23.9703 0.701754 23.9703H23.2982C23.6858 23.9703 24 23.6561 24 23.2686C24 22.8811 23.6858 22.5669 23.2982 22.5669ZM12.0682 22.5669H10.6647V17.354H12.0682V22.5669ZM12.77 15.9504H9.96295C9.57539 15.9504 9.26119 16.2646 9.26119 16.6522V22.5669H7.85768V15.0596L14.6255 9.05594L21.3934 15.0596V22.5669H13.4717V16.6522C13.4717 16.2646 13.1576 15.9504 12.77 15.9504ZM7.49633 5.27849C7.49633 3.162 9.2182 1.44013 11.3347 1.44013C13.4512 1.44013 15.1731 3.162 15.1731 5.27849V7.66549L15.0912 7.59288C14.8255 7.35718 14.4255 7.35718 14.1599 7.59288L12.0011 9.50787V5.77688C12.0011 5.38932 11.6869 5.07512 11.2994 5.07512C10.9118 5.07512 10.5976 5.38932 10.5976 5.77688V7.91578L10.13 7.44345C9.85726 7.16804 9.41301 7.16584 9.13754 7.43854C8.86213 7.71124 8.85993 8.15555 9.13263 8.43096L10.5976 9.91063V10.753L8.37282 12.7265C8.16103 12.4555 7.95864 12.1529 7.83354 11.8897C7.77965 11.3162 7.65988 10.7336 7.49633 10.1588V5.27849ZM2.31322 16.7293C1.7557 15.6235 1.44861 14.1378 1.44861 12.5457C1.44861 10.1816 3.06882 7.32654 3.9557 5.9409C4.58582 6.92429 5.58489 8.64818 6.11111 10.4134C6.11752 10.4414 6.12585 10.4687 6.13553 10.4953C6.33609 11.1882 6.46208 11.8857 6.46208 12.5458C6.46208 13.2523 6.40131 13.9376 6.28533 14.5784L5.5339 15.2449C5.24398 15.5021 5.2174 15.9457 5.47462 16.2356C5.55008 16.3206 5.64182 16.3824 5.74082 16.4216C5.69488 16.5268 5.64758 16.6301 5.59752 16.7293C5.12393 17.6686 4.52538 18.2072 3.95537 18.2072C3.38536 18.2072 2.78681 17.6685 2.31322 16.7293ZM4.65712 19.5053C5.32781 19.3006 5.9418 18.8008 6.45417 18.0411V22.5668H4.65712V19.5053Z" fill="white"/>
<path d="M15.6773 20.7452H19.0686C19.4561 20.7452 19.7703 20.431 19.7703 20.0434V16.6522C19.7703 16.2646 19.4561 15.9504 19.0686 15.9504H15.6773C15.2898 15.9504 14.9756 16.2646 14.9756 16.6522V20.0434C14.9756 20.431 15.2898 20.7452 15.6773 20.7452ZM16.3791 17.3539H18.3668V19.3417H16.3791V17.3539Z" fill="white"/>
</g>
<defs>
<clipPath id="clip0_1_3389">
<rect width="24" height="24" fill="white"/>
</clipPath>
</defs>
</svg>
