<svg width="21" height="21" viewBox="0 0 21 21" fill="none" xmlns="http://www.w3.org/2000/svg">
<g clip-path="url(#clip0_1_3631)">
<path d="M18.9719 8.50465L20.0053 9.2568L21.0023 7.88713L18.9719 6.40971V0.449784H13.8895V2.71348L10.5012 0.24939L3.06424 5.65756L2.29471 6.21738L2.03042 6.4093L0 7.88713L0.997009 9.2568L2.03042 8.50465V19.0854H0.336266V20.7796H20.6661V19.0854H18.9719V8.50465ZM15.5836 2.14393H17.2778V5.17694L15.5836 3.94438V2.14393ZM17.2778 19.0854H3.72457V7.27209L10.5012 2.34371L17.2778 7.27209V19.0854Z" fill="#4AD991"/>
<path d="M11.1809 13.7883H9.82155V13.0755C9.82155 12.7639 9.85764 12.5342 9.92982 12.3862C10.01 12.2304 10.1784 12.0278 10.4351 11.7786L11.3133 10.9256C11.4977 10.7309 11.59 10.4894 11.59 10.2012C11.59 9.91299 11.4937 9.67541 11.3012 9.48847C11.1088 9.29373 10.8601 9.19636 10.5554 9.19636C10.2506 9.19636 9.99398 9.28983 9.78546 9.47678C9.58496 9.65594 9.46867 9.89741 9.43659 10.2012H7.98096C8.06116 9.50794 8.33785 8.96657 8.81103 8.5771C9.29223 8.17983 9.88972 7.9812 10.6035 7.9812C11.3173 7.9812 11.8987 8.17204 12.3478 8.55373C12.797 8.92762 13.0215 9.45341 13.0215 10.1311C13.0215 10.5985 12.8892 10.9879 12.6245 11.2995C12.4722 11.4865 12.3559 11.6189 12.2757 11.6968C12.1955 11.7747 12.0872 11.8759 11.9509 12.0006C11.8225 12.1174 11.7103 12.2226 11.614 12.316C11.5258 12.4017 11.4536 12.4757 11.3975 12.538C11.2531 12.7094 11.1809 12.9509 11.1809 13.2625V13.7883ZM10.5193 16.3822C10.2707 16.3822 10.0541 16.3004 9.86967 16.1368C9.68521 15.9654 9.59298 15.7629 9.59298 15.5292C9.59298 15.2877 9.6812 15.0813 9.85764 14.9099C10.0421 14.7386 10.2586 14.6529 10.5073 14.6529C10.7639 14.6529 10.9844 14.7386 11.1689 14.9099C11.3534 15.0735 11.4456 15.276 11.4456 15.5175C11.4456 15.7512 11.3534 15.9537 11.1689 16.1251C10.9925 16.2965 10.7759 16.3822 10.5193 16.3822Z" fill="#4AD991"/>
</g>
<defs>
<clipPath id="clip0_1_3631">
<rect width="21.0024" height="21.0024" fill="white"/>
</clipPath>
</defs>
</svg>
