<svg width="24" height="24" viewBox="0 0 24 24" fill="none" xmlns="http://www.w3.org/2000/svg">
<g clip-path="url(#clip0_1_3408)">
<path d="M23.1302 22.5933H20.7753V5.33705C20.7753 2.39419 18.3811 0 15.4383 0H8.56168C5.61886 0 3.22468 2.39419 3.22468 5.33705V22.5933H0.869816C0.48141 22.5933 0.166504 22.9082 0.166504 23.2966C0.166504 23.685 0.48141 24 0.869816 24H3.92799C4.31639 24 4.6313 23.6851 4.6313 23.2967V5.33705C4.6313 3.16978 6.39446 1.40663 8.56168 1.40663H15.4383C17.6055 1.40663 19.3687 3.16978 19.3687 5.33705V23.2966C19.3687 23.685 19.6836 24 20.072 24H23.1302C23.5186 24 23.8335 23.685 23.8335 23.2966C23.8335 22.9082 23.5186 22.5933 23.1302 22.5933Z" fill="white"/>
<path d="M15.4056 2.82776H8.59391C7.23196 2.82776 6.12402 3.93574 6.12402 5.29765V23.096C6.12402 23.5945 6.52954 24 7.02796 24H16.9716C17.47 24 17.8755 23.5945 17.8755 23.096V5.29765C17.8755 3.93574 16.7675 2.82776 15.4056 2.82776ZM7.5307 22.5933V5.29765C7.5307 4.71134 8.00765 4.23438 8.59396 4.23438H15.4056C15.9919 4.23438 16.4689 4.71134 16.4689 5.29765V22.5933H7.5307Z" fill="white"/>
<path d="M14.884 12.7106H13.3107C12.9223 12.7106 12.6074 13.0255 12.6074 13.4139C12.6074 13.8023 12.9223 14.1172 13.3107 14.1172H14.884C15.2724 14.1172 15.5873 13.8023 15.5873 13.4139C15.5873 13.0255 15.2724 12.7106 14.884 12.7106Z" fill="white"/>
</g>
<defs>
<clipPath id="clip0_1_3408">
<rect width="24" height="24" fill="white"/>
</clipPath>
</defs>
</svg>
