<svg width="15" height="17" viewBox="0 0 15 17" fill="none" xmlns="http://www.w3.org/2000/svg">
<path d="M12.5519 10.2868V7.41915C12.5519 5.37968 11.3581 3.55019 9.50116 2.72669V2.08158C9.50112 0.933471 8.5671 0 7.41957 0C6.27205 0 5.33799 0.934061 5.33799 2.08158V2.72728C3.48159 3.55138 2.28844 5.38027 2.28844 7.41915V10.2868L0.112126 13.1849C-0.0153649 13.3545 -0.0358476 13.5779 0.0594755 13.768C0.154241 13.9581 0.345478 14.0762 0.557788 14.0762H4.64198C4.90457 15.3904 6.07317 16.3637 7.42013 16.3637C8.7671 16.3637 9.93569 15.3904 10.1983 14.0762H14.2837C14.496 14.0762 14.6866 13.9581 14.782 13.768C14.8767 13.5779 14.8568 13.3545 14.7293 13.1849L12.5519 10.2868ZM7.41898 15.2501C6.67268 15.2501 6.01471 14.7675 5.77958 14.0756H9.05783C8.82326 14.7675 8.16529 15.2501 7.41898 15.2501ZM11.5499 10.8067L13.1683 12.9626H1.6714L3.28976 10.8067C3.36171 10.7108 3.40146 10.5921 3.40146 10.4722V7.41856C3.40146 5.20246 5.20403 3.39989 7.42013 3.39989C9.63623 3.39989 11.4388 5.20246 11.4388 7.41856V10.4722C11.4382 10.5921 11.478 10.7108 11.5499 10.8067ZM7.41898 1.11243C7.95298 1.11243 8.38754 1.547 8.38754 2.08099V2.37812C7.75179 2.25706 7.08676 2.25706 6.45101 2.37812V2.08099C6.45101 1.547 6.88499 1.11243 7.41898 1.11243Z" fill="white"/>
</svg>
