<svg width="18" height="18" viewBox="0 0 18 18" fill="none" xmlns="http://www.w3.org/2000/svg">
<g clip-path="url(#clip0_1_3479)">
<path d="M8.84071 5.8681C8.38396 5.8681 8.08272 5.91198 7.90918 5.95624V8.88638C8.1074 8.93065 8.34008 8.94514 8.66404 8.94514C9.85686 8.94514 10.5929 8.3411 10.5929 7.32573C10.5933 6.41261 9.9595 5.8681 8.84071 5.8681Z" fill="#1867D2"/>
<path d="M15.6696 0H2.33043C1.1525 0 0.198242 0.954646 0.198242 2.13219V15.8682C0.198242 17.0457 1.15289 18 2.33043 18H15.6696C16.8476 18 17.8014 17.0454 17.8014 15.8682V2.13219C17.8018 0.954255 16.8476 0 15.6696 0ZM16.4879 15.5262C16.4879 16.1675 15.9685 16.6861 15.328 16.6861H2.64773C2.00686 16.6861 1.48743 16.1667 1.48743 15.5262V2.49885C1.48743 1.85837 2.00686 1.33893 2.64773 1.33893H15.3276C15.9685 1.33893 16.4876 1.85837 16.4876 2.49885L16.4879 15.5262Z" fill="#1867D2"/>
<path d="M15.3275 2.15729H2.64755C2.45873 2.15729 2.30518 2.31006 2.30518 2.49927V15.5266C2.30518 15.7147 2.45834 15.8686 2.64755 15.8686H15.3275C15.5159 15.8686 15.6694 15.7151 15.6694 15.5266V2.49888C15.6694 2.31006 15.5163 2.15729 15.3275 2.15729ZM11.9065 9.62327C11.1414 10.3444 10.0038 10.6684 8.67823 10.6684C8.38404 10.6684 8.13216 10.6535 7.90888 10.6241V14.1818H5.70226V4.38075C6.39641 4.26284 7.36163 4.17431 8.73112 4.17431C10.1155 4.17431 11.0995 4.43951 11.7627 4.96991C12.3954 5.47015 12.8216 6.29513 12.8216 7.26662C12.8216 8.23929 12.4964 9.06427 11.9065 9.62327Z" fill="#1867D2"/>
</g>
<defs>
<clipPath id="clip0_1_3479">
<rect width="18" height="18" fill="white"/>
</clipPath>
</defs>
</svg>
