<svg width="23" height="23" viewBox="0 0 23 23" fill="none" xmlns="http://www.w3.org/2000/svg">
<path d="M15.9941 10.7763L13.8914 9.61218L13.3555 8.8573V11.6935L15.2062 12.3124C15.6776 12.5058 16.2133 12.2526 16.3631 11.7656C16.4785 11.3903 16.3271 10.9843 15.9941 10.7763Z" fill="#68737A"/>
<path d="M11.0665 5.61326C12.2272 5.61326 13.1681 4.67232 13.1681 3.51161C13.1681 2.35091 12.2272 1.40997 11.0665 1.40997C9.90578 1.40997 8.96484 2.35091 8.96484 3.51161C8.96484 4.67232 9.90578 5.61326 11.0665 5.61326Z" fill="#68737A"/>
<path d="M9.15259 14.187C8.97883 14.0447 8.83043 13.8785 8.70005 13.6997L8.50418 16.0208L5.96424 19.5998C5.64984 19.9707 5.6837 20.5235 6.04097 20.8533C6.39013 21.1756 6.92876 21.174 7.27595 20.8496L9.83113 17.9175C10.1581 17.5423 10.4066 17.1054 10.5621 16.6327L10.8968 15.6148L9.15259 14.187Z" fill="#68737A"/>
<path d="M10.3966 6.32812H10.7572C11.8335 6.32812 12.706 7.20065 12.706 8.27695V11.7505C12.706 12.1922 12.8815 12.6158 13.1939 12.9282L14.539 14.2734C15.0198 14.7541 15.3548 15.3611 15.5053 16.0242L16.4076 20.0008C16.4952 20.5758 16.0502 21.0938 15.4685 21.0938C15.041 21.0938 14.6662 20.8082 14.5527 20.396L13.1682 16.6008L9.69174 13.7542C9.13537 13.2987 8.82475 12.6086 8.8526 11.8901L8.95602 9.22184L7.71586 10.2258L7.30178 12.3169C7.20448 12.8082 6.72592 13.1266 6.23511 13.0265C5.76146 12.9299 5.44782 12.4775 5.52345 12.0001L5.90325 9.60244C5.9895 9.05793 6.28598 8.56902 6.72894 8.24081L8.43757 6.97481C9.00438 6.55483 9.69116 6.32812 10.3966 6.32812Z" fill="#68737A"/>
</svg>
