<svg width="77" height="30" viewBox="0 0 77 30" fill="none" xmlns="http://www.w3.org/2000/svg">
<path d="M6.22685 18.6581C6.66805 18.5729 7.10925 18.4824 7.545 18.3706V8.88523L15.2414 3.94559L22.9542 8.7628V16.4516L26.5764 15.8374L26.5709 10.6524H29.534C29.9643 10.6524 30.3238 10.3863 30.4437 9.98175C30.5635 9.57721 30.411 9.16734 30.046 8.93314L16.1184 0.251506C15.5791 -0.0838355 14.8874 -0.0838355 14.3481 0.251506L0.44227 8.93314C0.0773292 9.16734 -0.0860764 9.57188 0.0446486 9.97642C0.159033 10.381 0.523971 10.6418 0.954275 10.6418H3.94461L3.93372 18.871L4.24419 18.8603C4.91416 18.839 5.57323 18.7698 6.22685 18.6581Z" fill="white"/>
<path d="M26.6128 17.6916V21.6754C22.1566 21.4541 19.419 25.2665 17.217 30H13.1923V19.8548C12.2252 20.783 9.36105 24.5169 3.87085 24.5169V20.5331C8.15589 20.7972 11.3325 19.0409 13.1923 15H17.217V23.6102C17.3806 23.4246 20.3043 17.6916 26.6128 17.6916Z" fill="url(#paint0_linear_16_430)"/>
<path d="M41.4926 13.7255C42.0295 13.7255 42.5408 13.8681 43.0248 14.1542C43.5122 14.4403 43.9075 14.8912 44.2113 15.5058C44.5186 16.1203 44.6722 16.9185 44.6722 17.9003C44.6722 18.8397 44.5259 19.6191 44.2328 20.2372C43.9432 20.8553 43.5542 21.3162 43.0668 21.62C42.5829 21.9238 42.0513 22.076 41.472 22.0761C41.0907 22.0761 40.7498 22.0141 40.4496 21.8905C40.1529 21.7633 39.8979 21.5923 39.6859 21.3768C39.4775 21.1578 39.3175 20.9102 39.2045 20.6347H39.1615V25.0224H36.2367V13.8309H39.14V15.2518H39.2045C39.3104 14.9764 39.4655 14.7236 39.6703 14.494C39.8751 14.261 40.1293 14.0751 40.433 13.9374C40.7367 13.7962 41.0901 13.7255 41.4926 13.7255ZM58.5433 22.1317H55.6205V12.9452H58.5433V22.1317ZM63.5844 13.7255C64.7606 13.7255 65.6884 13.9694 66.3666 14.4569C67.048 14.9443 67.4064 15.6188 67.4418 16.4804H64.7504C64.7362 16.3146 64.6778 16.1716 64.5756 16.0517C64.4732 15.9316 64.3405 15.8398 64.1781 15.7763C64.0191 15.7091 63.8421 15.6757 63.6478 15.6757C63.3971 15.6757 63.1814 15.7216 63.0013 15.8134C62.8215 15.9052 62.7332 16.0356 62.7367 16.205C62.7332 16.325 62.7842 16.4366 62.89 16.539C62.9995 16.6414 63.21 16.7207 63.5209 16.7772L65.1742 17.0741C66.0077 17.226 66.6274 17.4824 67.0336 17.8427C67.4433 18.1994 67.6501 18.6778 67.6537 19.2782C67.6502 19.8575 67.4768 20.3615 67.1342 20.789C66.7951 21.2126 66.3303 21.5413 65.7406 21.7743C65.1543 22.0038 64.485 22.1181 63.7328 22.1181C62.4894 22.1181 61.5158 21.864 60.8129 21.3554C60.1136 20.8467 59.7232 20.1752 59.642 19.3417H62.5463C62.5851 19.5994 62.7119 19.799 62.9271 19.9403C63.1461 20.0781 63.4222 20.1474 63.7543 20.1474C64.0226 20.1473 64.2434 20.1015 64.4164 20.0097C64.593 19.9178 64.6834 19.7866 64.6869 19.6171C64.6832 19.4619 64.6051 19.3387 64.4535 19.247C64.3052 19.1551 64.072 19.0808 63.7543 19.0243L62.3129 18.7694C61.4828 18.6246 60.8609 18.3495 60.4476 17.9433C60.0344 17.5371 59.8299 17.0142 59.8334 16.3749C59.8298 15.8097 59.9775 15.3305 60.2777 14.9384C60.5815 14.5428 61.0149 14.2428 61.5765 14.038C62.1416 13.8296 62.8109 13.7255 63.5844 13.7255ZM72.6107 13.7255C73.2253 13.7255 73.7816 13.8209 74.2797 14.0116C74.7777 14.2024 75.2038 14.4798 75.557 14.8436C75.91 15.2038 76.1817 15.6417 76.3724 16.1571C76.5631 16.6727 76.6585 17.254 76.6586 17.9003V18.579H71.3597V18.7059C71.3597 18.9673 71.4153 19.2003 71.5248 19.4052C71.6342 19.6099 71.7908 19.771 71.9955 19.8876C72.2003 20.0041 72.4481 20.0624 72.7377 20.0624C72.9389 20.0624 73.1225 20.0339 73.2885 19.9774C73.4579 19.921 73.603 19.8401 73.723 19.7343C73.8431 19.6248 73.9321 19.4936 73.9886 19.3417H76.6586C76.5667 19.9069 76.3498 20.3985 76.0072 20.8153C75.6646 21.2286 75.21 21.5496 74.6449 21.7792C74.0833 22.0052 73.4265 22.1181 72.6742 22.1181C71.8052 22.1181 71.0559 21.9521 70.4271 21.62C69.8022 21.2845 69.3199 20.8045 68.9808 20.1796C68.6453 19.5508 68.4779 18.7978 68.4779 17.9218C68.4779 17.0811 68.6476 16.3464 68.9867 15.7177C69.3258 15.089 69.8041 14.5996 70.4222 14.2499C71.0404 13.9002 71.77 13.7255 72.6107 13.7255ZM48.8226 18.4091C48.8262 18.8118 48.9279 19.1287 49.1293 19.3583C49.3341 19.5878 49.6205 19.7019 49.9877 19.702C50.2313 19.702 50.4419 19.6511 50.6185 19.5487C50.7987 19.4428 50.9362 19.2941 51.0316 19.1034C51.1305 18.9091 51.1787 18.6775 51.1752 18.4091V13.8309H54.1V21.9696H51.3236V20.4227H51.2386C51.062 20.942 50.7525 21.3483 50.3109 21.6415C49.8694 21.931 49.3451 22.0761 48.7377 22.0761C48.169 22.0761 47.671 21.9449 47.2435 21.6835C46.8198 21.4221 46.489 21.0625 46.2523 20.6034C46.0192 20.1443 45.9014 19.6176 45.8978 19.0243V13.8309H48.8226V18.4091ZM40.391 15.9716C40.1225 15.9716 39.8909 16.0496 39.6967 16.205C39.506 16.3568 39.3573 16.5775 39.2513 16.8671C39.1489 17.1531 39.0981 17.4978 39.098 17.9003C39.098 18.2958 39.1489 18.639 39.2513 18.9286C39.3573 19.2147 39.5059 19.4376 39.6967 19.5966C39.8909 19.752 40.1226 19.829 40.391 19.829C40.6594 19.829 40.8874 19.7533 41.0746 19.6015C41.2653 19.446 41.4103 19.2254 41.5092 18.9393C41.6116 18.6497 41.6625 18.303 41.6625 17.9003C41.6624 17.4978 41.6116 17.1531 41.5092 16.8671C41.4102 16.5776 41.2653 16.3568 41.0746 16.205C40.8874 16.0496 40.6594 15.9716 40.391 15.9716ZM72.6742 15.7811C72.4377 15.7811 72.2205 15.8322 72.0228 15.9345C71.825 16.0334 71.6654 16.1719 71.5453 16.3485C71.4289 16.5251 71.3668 16.7321 71.3597 16.9686H73.9672C73.9636 16.7355 73.9031 16.53 73.7865 16.3534C73.6735 16.1734 73.5198 16.0333 73.3256 15.9345C73.1349 15.8322 72.9177 15.7811 72.6742 15.7811Z" fill="url(#paint1_linear_16_430)"/>
<path d="M37.2571 9.9354C36.3802 9.9354 35.8623 9.44265 35.8623 8.69935C35.8623 7.94769 36.4219 7.47999 37.3824 7.40482L38.6685 7.3046V7.18768C38.6685 6.50284 38.2593 6.26064 37.7081 6.26064C37.0483 6.26064 36.6725 6.55295 36.6725 7.0457H35.9876C35.9876 6.19382 36.6892 5.63425 37.7415 5.63425C38.7521 5.63425 39.4369 6.16877 39.4369 7.2712V9.83518H38.7688L38.6852 9.1754C38.4764 9.64309 37.9169 9.9354 37.2571 9.9354ZM37.4826 9.32573C38.2259 9.32573 38.6769 8.84133 38.6769 8.07296V7.85582L37.6329 7.93934C36.9397 8.00615 36.6558 8.27341 36.6558 8.67429C36.6558 9.10858 36.9731 9.32573 37.4826 9.32573ZM41.0586 9.83518H40.2736V5.75118H40.9751L41.0503 6.28569C41.2591 5.90151 41.6934 5.63425 42.2696 5.63425C42.9044 5.63425 43.3554 5.95162 43.5642 6.46108C43.7563 5.95162 44.249 5.63425 44.8837 5.63425C45.8191 5.63425 46.3871 6.21888 46.3871 7.16262V9.83518H45.6187V7.35471C45.6187 6.71163 45.2596 6.34415 44.7084 6.34415C44.1154 6.34415 43.7228 6.76174 43.7228 7.41318V9.83518H42.9461V7.34636C42.9461 6.70328 42.5954 6.3525 42.0441 6.3525C41.4512 6.3525 41.0586 6.76174 41.0586 7.41318V9.83518ZM48.987 9.9354C47.7843 9.9354 46.9575 9.06682 46.9575 7.79736C46.9575 6.51954 47.7676 5.63425 48.9536 5.63425C50.1145 5.63425 50.8745 6.43602 50.8745 7.64703V7.93934L47.7175 7.94769C47.776 8.80792 48.227 9.28397 49.0037 9.28397C49.6134 9.28397 50.0143 9.03342 50.1479 8.56572H50.8828C50.6824 9.44265 49.9976 9.9354 48.987 9.9354ZM48.9536 6.29404C48.2687 6.29404 47.8344 6.70328 47.7342 7.42153H50.0894C50.0894 6.74504 49.6468 6.29404 48.9536 6.29404ZM52.2859 9.83518H51.5008V5.75118H52.2107L52.2942 6.37756C52.5531 5.90986 53.0709 5.63425 53.6472 5.63425C54.7246 5.63425 55.2173 6.29404 55.2173 7.33801V9.83518H54.4323V7.5134C54.4323 6.68657 54.0481 6.3525 53.4468 6.3525C52.7118 6.3525 52.2859 6.87866 52.2859 7.67208V9.83518ZM56.4383 4.78238C56.1544 4.78238 55.9205 4.54853 55.9205 4.26457C55.9205 3.97226 56.1544 3.74676 56.4383 3.74676C56.7223 3.74676 56.9561 3.97226 56.9561 4.26457C56.9561 4.54853 56.7223 4.78238 56.4383 4.78238ZM56.0541 9.83518V5.75118H56.8392V9.83518H56.0541ZM58.8809 9.83518H58.0959V6.41097H57.2941V5.75118H58.0959V4.47336H58.8809V5.75118H59.6827V6.41097H58.8809V9.83518ZM60.5209 4.78238C60.2369 4.78238 60.0031 4.54853 60.0031 4.26457C60.0031 3.97226 60.2369 3.74676 60.5209 3.74676C60.8048 3.74676 61.0387 3.97226 61.0387 4.26457C61.0387 4.54853 60.8048 4.78238 60.5209 4.78238ZM60.1367 9.83518V5.75118H60.9218V9.83518H60.1367ZM63.5732 9.9354C62.3705 9.9354 61.5437 9.06682 61.5437 7.79736C61.5437 6.51954 62.3538 5.63425 63.5398 5.63425C64.7007 5.63425 65.4607 6.43602 65.4607 7.64703V7.93934L62.3037 7.94769C62.3622 8.80792 62.8132 9.28397 63.5899 9.28397C64.1996 9.28397 64.6004 9.03342 64.7341 8.56572H65.469C65.2686 9.44265 64.5837 9.9354 63.5732 9.9354ZM63.5398 6.29404C62.8549 6.29404 62.4206 6.70328 62.3204 7.42153H64.6756C64.6756 6.74504 64.233 6.29404 63.5398 6.29404ZM65.7529 8.64924H66.5046C66.5046 9.06682 66.8219 9.31737 67.3398 9.31737C67.891 9.31737 68.2083 9.09188 68.2083 8.71605C68.2083 8.44044 68.0747 8.27341 67.6488 8.16483L66.9305 7.9978C66.2039 7.82241 65.8615 7.46329 65.8615 6.86196C65.8615 6.1103 66.4962 5.63425 67.3982 5.63425C68.2919 5.63425 68.8765 6.13536 68.8932 6.91207H68.1415C68.1248 6.50284 67.8492 6.24393 67.3732 6.24393C66.8804 6.24393 66.6048 6.46108 66.6048 6.83691C66.6048 7.11251 66.8052 7.29625 67.2061 7.39647L67.9244 7.57186C68.6176 7.73889 68.96 8.05626 68.96 8.66594C68.96 9.44265 68.2919 9.9354 67.3231 9.9354C66.3626 9.9354 65.7529 9.42595 65.7529 8.64924Z" fill="white"/>
<defs>
<linearGradient id="paint0_linear_16_430" x1="98.9363" y1="-58.0829" x2="4.37887" y2="39.058" gradientUnits="userSpaceOnUse">
<stop stop-color="white"/>
<stop offset="1" stop-color="#DD1F26"/>
</linearGradient>
<linearGradient id="paint1_linear_16_430" x1="36.2367" y1="18.9838" x2="76.6586" y2="18.9838" gradientUnits="userSpaceOnUse">
<stop stop-color="#E97156"/>
<stop offset="1" stop-color="#E01E26"/>
</linearGradient>
</defs>
</svg>
