<svg width="20" height="17" viewBox="0 0 20 17" fill="none" xmlns="http://www.w3.org/2000/svg">
<path fill-rule="evenodd" clip-rule="evenodd" d="M8.6665 9.33501C8.6665 8.96591 8.96381 8.66669 9.33314 8.66669H19.3332C19.7013 8.66669 19.9998 8.96571 19.9998 9.33501V15.9984C19.9998 16.3675 19.7025 16.6667 19.3332 16.6667H9.33314C8.96498 16.6667 8.6665 16.3677 8.6665 15.9984V9.33501ZM15.6665 11.3609C15.6665 12.0973 15.0696 12.6943 14.3332 12.6943C13.5968 12.6943 12.9999 12.0973 12.9999 11.3609V10.6667C12.9999 10.2985 12.7014 10 12.3332 10C11.965 10 11.6665 10.2985 11.6665 10.6667V11.3609C11.6665 12.8337 12.8604 14.0276 14.3332 14.0276C15.806 14.0276 16.9999 12.8337 16.9999 11.3609V10.6667C16.9999 10.2985 16.7014 10 16.3332 10C15.965 10 15.6665 10.2985 15.6665 10.6667V11.3609Z" fill="#17AD8F"/>
<path fill-rule="evenodd" clip-rule="evenodd" d="M8.66668 3.33337H10.3326C10.7012 3.33337 11 3.63056 11 3.99916V7.66673H9.00008C8.26402 7.66673 7.66668 8.26396 7.66668 9.00068V15.9994C7.66668 16.2425 7.73168 16.4704 7.84527 16.6667H0.667422C0.298828 16.6667 0 16.3695 0 16.001V3.99916C0 3.63146 0.299922 3.33337 0.667422 3.33337H2.66668V5.36095C2.66668 5.72916 2.96516 6.02763 3.33336 6.02763C3.70156 6.02763 4.00004 5.72916 4.00004 5.36095V3.33337H7.33336V5.36095C7.33336 5.72916 7.63184 6.02763 8.00004 6.02763C8.36824 6.02763 8.66672 5.72916 8.66672 5.36095L8.66668 3.33337Z" fill="#17AD8F"/>
<path fill-rule="evenodd" clip-rule="evenodd" d="M8.6665 2.66668C8.6665 1.16914 7.30252 0 5.6665 0C4.03049 0 2.6665 1.16914 2.6665 2.66668V3.36094H3.99982V2.66668C3.99982 1.95508 4.72518 1.33336 5.6665 1.33336C6.60783 1.33336 7.33318 1.95508 7.33318 2.66668V3.36094H8.6665V2.66668Z" fill="#17AD8F"/>
</svg>
