<svg width="18" height="25" viewBox="0 0 18 25" fill="none" xmlns="http://www.w3.org/2000/svg">
<path d="M0.981934 5.17208C0.981934 3.70557 0.981934 2.97232 1.26738 2.4119C1.51845 1.91917 1.91905 1.51857 2.41178 1.2675C2.9722 0.982056 3.70545 0.982056 5.17196 0.982056H12.5045C13.971 0.982056 14.7043 0.982056 15.2647 1.2675C15.7574 1.51857 16.158 1.91917 16.4091 2.4119C16.6945 2.97232 16.6945 3.70557 16.6945 5.17208V22.5934C16.6945 23.2298 16.6945 23.548 16.5623 23.7221C16.5051 23.7979 16.4322 23.8603 16.3486 23.905C16.2649 23.9498 16.1725 23.9759 16.0778 23.9814C15.8591 23.9945 15.5947 23.8177 15.0657 23.4655L8.83823 19.3134L2.61081 23.4642C2.08182 23.8177 1.81732 23.9945 1.59734 23.9814C1.50285 23.9757 1.41073 23.9495 1.32731 23.9048C1.2439 23.86 1.17118 23.7977 1.11418 23.7221C0.981933 23.548 0.981934 23.2298 0.981934 22.5934V5.17208Z" fill="#EEBE00" stroke="#EEBE00" stroke-width="1.96408" stroke-linecap="round" stroke-linejoin="round"/>
</svg>
