<svg width="20" height="20" viewBox="0 0 20 20" fill="none" xmlns="http://www.w3.org/2000/svg">
<g clip-path="url(#clip0_1_3517)">
<path d="M13.3104 2.14901L12.7244 1.37972L13.3104 0.61053C13.4377 0.443625 13.4056 0.205149 13.2387 0.0778634C13.1722 0.0271967 13.091 -0.000184234 13.0074 6.24225e-06H10.0074C9.79585 -0.00118423 9.62271 0.168054 9.61914 0.379578V3.76191H10.381V2.76191H13.0074C13.2182 2.76143 13.3888 2.5901 13.3883 2.37924C13.3881 2.29605 13.3608 2.2152 13.3104 2.14901Z" fill="#F68708"/>
<path d="M1.27921 12C0.968879 11.9984 0.715975 12.2486 0.714355 12.5589C0.714355 12.5614 0.714355 12.5639 0.714355 12.5663V20H5.52388V12H1.27921ZM2.52388 17.9048C2.52388 18.1152 2.35331 18.2857 2.14293 18.2857C1.93255 18.2857 1.76197 18.1152 1.76197 17.9048V17.0862C1.76197 16.8758 1.93255 16.7052 2.14293 16.7052C2.35331 16.7052 2.52388 16.8758 2.52388 17.0862V17.9048ZM2.52388 14.7163C2.52388 14.9267 2.35331 15.0972 2.14293 15.0972C1.93255 15.0972 1.76197 14.9267 1.76197 14.7163V13.8976C1.76197 13.6872 1.93255 13.5167 2.14293 13.5167C2.35331 13.5167 2.52388 13.6872 2.52388 13.8976V14.7163ZM4.47626 17.9048C4.47626 18.1152 4.30569 18.2857 4.09531 18.2857C3.88493 18.2857 3.71436 18.1152 3.71436 17.9048V17.0862C3.71436 16.8758 3.88493 16.7052 4.09531 16.7052C4.30569 16.7052 4.47626 16.8758 4.47626 17.0862V17.9048ZM4.47626 14.7163C4.47626 14.9267 4.30569 15.0972 4.09531 15.0972C3.88493 15.0972 3.71436 14.9267 3.71436 14.7163V13.8976C3.71436 13.6872 3.88493 13.5167 4.09531 13.5167C4.30569 13.5167 4.47626 13.6872 4.47626 13.8976V14.7163Z" fill="#F68708"/>
<path d="M9.93869 6.69049L6.28564 9.79782V20H7.95231V16.0328C7.94726 15.8356 8.10303 15.6717 8.30022 15.6666C8.30664 15.6665 8.31307 15.6665 8.3195 15.6667H11.5942C11.7873 15.6618 11.9477 15.8144 11.9526 16.0074C11.9528 16.0159 11.9527 16.0243 11.9523 16.0328V20H13.5714V9.7943L9.93869 6.69049ZM11.5942 13.5238H8.29798C8.0876 13.5238 7.91703 13.3533 7.91703 13.1429C7.91703 12.9325 8.0876 12.7619 8.29798 12.7619H11.5942C11.8045 12.7619 11.9751 12.9325 11.9751 13.1429C11.9751 13.3533 11.8045 13.5238 11.5942 13.5238Z" fill="#F68708"/>
<path d="M18.7284 12C18.726 12 18.7235 12 18.721 12H14.3335V20H19.2859V12.5663C19.2884 12.256 19.0387 12.0025 18.7284 12ZM16.2859 17.9048C16.2859 18.1151 16.1153 18.2857 15.9049 18.2857C15.6945 18.2857 15.524 18.1151 15.524 17.9048V17.0861C15.524 16.8758 15.6945 16.7052 15.9049 16.7052C16.1153 16.7052 16.2859 16.8758 16.2859 17.0861V17.9048ZM16.2859 14.7163C16.2859 14.9267 16.1153 15.0972 15.9049 15.0972C15.6945 15.0972 15.524 14.9267 15.524 14.7163V13.8976C15.524 13.6872 15.6945 13.5167 15.9049 13.5167C16.1153 13.5167 16.2859 13.6872 16.2859 13.8976V14.7163ZM18.1906 17.9048C18.1906 18.1151 18.0201 18.2857 17.8097 18.2857C17.5993 18.2857 17.4287 18.1151 17.4287 17.9048V17.0861C17.4287 16.8758 17.5993 16.7052 17.8097 16.7052C18.0201 16.7052 18.1906 16.8758 18.1906 17.0861V17.9048ZM18.1906 14.7163C18.1906 14.9267 18.0201 15.0972 17.8097 15.0972C17.5993 15.0972 17.4287 14.9267 17.4287 14.7163V13.8976C17.4287 13.6872 17.5993 13.5167 17.8097 13.5167C18.0201 13.5167 18.1906 13.6872 18.1906 13.8976V14.7163Z" fill="#F68708"/>
<path d="M9.95694 4.27789L4.50537 8.94504L5.19432 9.7467L9.70961 5.89932C9.85223 5.7778 10.062 5.77799 10.2044 5.89985L14.7009 9.74827L15.4057 8.94285L9.95694 4.27789Z" fill="#F68708"/>
<path d="M11.1905 16.4286H8.71436V20H11.1905V16.4286Z" fill="#F68708"/>
</g>
<defs>
<clipPath id="clip0_1_3517">
<rect width="20" height="20" fill="white"/>
</clipPath>
</defs>
</svg>
