<svg width="14" height="12" viewBox="0 0 14 12" fill="none" xmlns="http://www.w3.org/2000/svg">
<path fill-rule="evenodd" clip-rule="evenodd" d="M13.7018 5.3006L8.70477 0.300034C8.52488 0.110013 8.27503 0 7.9952 0C7.44553 0 6.9958 0.450051 6.9958 1.00011C6.9958 1.28015 7.10573 1.53017 7.28562 1.71019L10.5736 5.00057H0.9994C0.44973 5.00057 0 5.45062 0 6.00068C0 6.55074 0.44973 7.0008 0.9994 7.0008H10.5836L7.29562 10.2912C7.11573 10.4712 7.00579 10.7212 7.00579 11.0012C7.00579 11.5513 7.45552 12.0014 8.00519 12.0014C8.28502 12.0014 8.53487 11.8914 8.71477 11.7113L13.7118 6.71076C13.8917 6.53074 14.0016 6.28071 14.0016 6.00068C14.0016 5.72065 13.8817 5.48062 13.7018 5.3006Z" fill="#F4F7FE"/>
</svg>
