<svg width="18" height="22" viewBox="0 0 18 22" fill="none" xmlns="http://www.w3.org/2000/svg">
<g clip-path="url(#clip0_1_3609)">
<path d="M3.64873 13.9464C3.49208 13.9464 3.38111 14.047 3.36153 14.2146C3.02211 16.8966 2.93726 16.9234 0.287199 17.3861C0.104436 17.4128 0 17.5134 0 17.6811C0 17.8487 0.104436 17.9425 0.254562 17.9694C2.92421 18.4991 3.02211 18.4722 3.36153 21.1341C3.38111 21.3151 3.49208 21.4225 3.64873 21.4225C3.79886 21.4225 3.91635 21.3151 3.93593 21.1408C4.2884 18.4387 4.3602 18.3985 7.03634 17.9694C7.18653 17.9493 7.29093 17.8487 7.29093 17.6811C7.29093 17.5201 7.18653 17.4128 7.03634 17.3861C4.3602 16.8564 4.29493 16.8831 3.93593 14.2012C3.91635 14.047 3.79886 13.9464 3.64873 13.9464Z" fill="url(#paint0_linear_1_3609)"/>
<path d="M10.2412 2.82938C10.0062 2.82938 9.83645 2.997 9.81032 3.23838C9.09233 8.87055 8.41352 9.48745 3.04158 10.1981C2.80008 10.225 2.63037 10.406 2.63037 10.6407C2.63037 10.8821 2.80008 11.0631 3.04158 11.0899C8.4331 11.6598 9.15108 12.4108 9.81032 18.043C9.83645 18.2844 10.0062 18.4587 10.2412 18.4587C10.4696 18.4587 10.6458 18.2844 10.6785 18.043C11.3443 12.4108 12.0557 11.6598 17.4407 11.0899C17.6887 11.0631 17.8519 10.8821 17.8519 10.6407C17.8519 10.406 17.6887 10.225 17.4407 10.1981C12.0557 9.62155 11.3443 8.87055 10.6785 3.23838C10.6458 2.997 10.4696 2.82938 10.2412 2.82938Z" fill="url(#paint1_linear_1_3609)"/>
</g>
<defs>
<linearGradient id="paint0_linear_1_3609" x1="0" y1="17.6844" x2="7.29093" y2="17.6844" gradientUnits="userSpaceOnUse">
<stop stop-color="#B5D9EF"/>
<stop offset="1" stop-color="#1867D2"/>
</linearGradient>
<linearGradient id="paint1_linear_1_3609" x1="2.63037" y1="10.644" x2="17.8519" y2="10.644" gradientUnits="userSpaceOnUse">
<stop stop-color="#B5D9EF"/>
<stop offset="1" stop-color="#1867D2"/>
</linearGradient>
<clipPath id="clip0_1_3609">
<rect width="17.852" height="21.4224" fill="white"/>
</clipPath>
</defs>
</svg>
