<svg width="19" height="19" viewBox="0 0 19 19" fill="none" xmlns="http://www.w3.org/2000/svg">
<g clip-path="url(#clip0_1_3651)">
<path d="M18.5847 15.8581C18.2497 15.6256 17.7897 15.7086 17.5572 16.0436C16.6215 17.3915 13.898 17.3923 12.9619 16.0436C12.8239 15.8448 12.5973 15.7263 12.3553 15.7263C12.1133 15.7263 11.8867 15.8448 11.7487 16.0436C10.813 17.3915 8.08961 17.3923 7.1534 16.0436C7.0154 15.8448 6.78883 15.7263 6.54684 15.7263C6.30484 15.7263 6.07824 15.8449 5.94027 16.0436C5.00459 17.3916 2.28118 17.3923 1.34497 16.0436C1.11243 15.7086 0.652317 15.6256 0.317397 15.8581C-0.0175976 16.0906 -0.100663 16.5506 0.131884 16.8856C1.48744 18.8384 4.76454 19.0498 6.54684 17.5483C8.11419 18.8687 10.8063 18.8532 12.3553 17.5483C14.1371 19.0495 17.4158 18.8367 18.7702 16.8856C19.0027 16.5506 18.9197 16.0906 18.5847 15.8581Z" fill="#8280FF"/>
<path d="M3.618 11.6654C4.0258 11.6654 4.35636 11.3349 4.35636 10.9271V9.81965H11.0016V10.9271C11.0016 11.3349 11.3321 11.6654 11.7399 11.6654C12.1477 11.6654 12.4783 11.3349 12.4783 10.9271V2.87954C12.4783 2.3096 12.942 1.84591 13.512 1.84591C14.082 1.84591 14.5457 2.3096 14.5457 2.87954C14.5457 3.2873 14.8763 3.61787 15.2841 3.61787C15.6919 3.61787 16.0224 3.2873 16.0224 2.87954C16.0224 1.49537 14.8962 0.369263 13.512 0.369263C12.1278 0.369263 11.0016 1.49537 11.0016 2.87954V5.02064H4.35636V2.87954C4.35636 2.3096 4.82005 1.84591 5.39007 1.84591C5.96008 1.84591 6.42377 2.3096 6.42377 2.87954C6.42377 3.2873 6.75434 3.61787 7.16213 3.61787C7.56993 3.61787 7.90049 3.2873 7.90049 2.87954C7.90046 1.49537 6.77431 0.369263 5.39007 0.369263C4.00582 0.369263 2.87964 1.49537 2.87964 2.87954V10.9272C2.87964 11.3349 3.2102 11.6654 3.618 11.6654ZM4.35636 6.49725H11.0016V8.34304H4.35636V6.49725Z" fill="#8280FF"/>
<path d="M6.54695 14.2257C7.29029 14.8519 8.32127 15.2093 9.45114 15.2093C10.581 15.2093 11.612 14.8519 12.3553 14.2257C14.1371 15.7268 17.4159 15.514 18.7703 13.563C19.0028 13.228 18.9197 12.768 18.5847 12.5354C18.2497 12.303 17.7897 12.386 17.5572 12.721C16.6215 14.0689 13.898 14.0696 12.9619 12.721C12.8239 12.5222 12.5973 12.4036 12.3553 12.4036C12.1133 12.4036 11.8867 12.5222 11.7487 12.721C10.813 14.0689 8.08961 14.0696 7.1534 12.721C7.0154 12.5222 6.78883 12.4036 6.54684 12.4036C6.30484 12.4036 6.07824 12.5222 5.94027 12.721C5.00459 14.0689 2.28118 14.0696 1.34497 12.721C1.11243 12.386 0.652317 12.303 0.317397 12.5354C-0.0175976 12.768 -0.100663 13.228 0.131884 13.563C1.48744 15.5158 4.76454 15.7272 6.54695 14.2257Z" fill="#8280FF"/>
</g>
<defs>
<clipPath id="clip0_1_3651">
<rect width="18.9021" height="18.9021" fill="white"/>
</clipPath>
</defs>
</svg>
