<svg width="20" height="20" viewBox="0 0 20 20" fill="none" xmlns="http://www.w3.org/2000/svg">
<g clip-path="url(#clip0_165_459)">
<path d="M9.20459 2.45455C9.20459 2.79345 9.47931 3.06818 9.81823 3.06818C10.1571 3.06818 10.4319 2.79345 10.4319 2.45455V1.22727C10.4319 0.88837 10.1571 0.613636 9.81823 0.613636C9.47931 0.613636 9.20459 0.88837 9.20459 1.22727V2.45455Z" fill="white"/>
<path fill-rule="evenodd" clip-rule="evenodd" d="M13.8283 14.4629C15.1304 13.3377 15.9544 11.6742 15.9544 9.81818C15.9544 6.4568 13.2517 3.72667 9.90082 3.68237C9.87326 3.682 9.84565 3.68182 9.818 3.68182C6.42898 3.68182 3.68164 6.42916 3.68164 9.81818C3.68164 13.2072 6.42898 15.9545 9.818 15.9545C11.3512 15.9545 12.7528 15.3924 13.8283 14.4629ZM4.90891 9.81818C4.90891 7.48952 6.53029 5.53957 8.7057 5.03565C7.87628 5.86784 7.36346 7.0158 7.36346 8.28409C7.36346 10.8259 9.42396 12.8864 11.9657 12.8864C12.688 12.8864 13.3714 12.7199 13.9795 12.4234C13.7171 12.8418 13.3934 13.2177 13.0209 13.5386C12.2381 14.213 11.2402 14.6447 10.1442 14.7166C10.0364 14.7237 9.92763 14.7273 9.818 14.7273C7.10677 14.7273 4.90891 12.5294 4.90891 9.81818ZM10.9941 5.05087C13.1373 5.57783 14.7271 7.51235 14.7271 9.81818C14.7271 9.96426 14.7207 10.1089 14.7082 10.2517C14.0947 11.1051 13.0948 11.6591 11.9657 11.6591C10.1018 11.6591 8.59073 10.148 8.59073 8.28409C8.59073 6.75853 9.60348 5.46805 10.9941 5.05087Z" fill="white"/>
<path d="M9.81823 19.0227C9.47931 19.0227 9.20459 18.748 9.20459 18.4091V17.1818C9.20459 16.8429 9.47931 16.5682 9.81823 16.5682C10.1571 16.5682 10.4319 16.8429 10.4319 17.1818V18.4091C10.4319 18.748 10.1571 19.0227 9.81823 19.0227Z" fill="white"/>
<path d="M0.613525 9.81818C0.613525 9.47927 0.88826 9.20455 1.22716 9.20455H2.45443C2.79334 9.20455 3.06807 9.47927 3.06807 9.81818C3.06807 10.1571 2.79334 10.4318 2.45443 10.4318H1.22716C0.88826 10.4318 0.613525 10.1571 0.613525 9.81818Z" fill="white"/>
<path d="M17.1818 9.20455C16.8428 9.20455 16.5681 9.47927 16.5681 9.81818C16.5681 10.1571 16.8428 10.4318 17.1818 10.4318H18.409C18.7479 10.4318 19.0227 10.1571 19.0227 9.81818C19.0227 9.47927 18.7479 9.20455 18.409 9.20455H17.1818Z" fill="white"/>
<path d="M3.30962 16.3268C3.06997 16.0871 3.06997 15.6986 3.30962 15.459L4.17743 14.5911C4.41708 14.3515 4.80561 14.3515 5.04523 14.5911C5.28489 14.8308 5.28489 15.2193 5.04523 15.459L4.17743 16.3268C3.9378 16.5664 3.54925 16.5664 3.30962 16.3268Z" fill="white"/>
<path d="M14.5911 4.17739C14.3515 4.41705 14.3515 4.80557 14.5911 5.04523C14.8308 5.28485 15.2193 5.28485 15.4589 5.04523L16.3267 4.17739C16.5664 3.93777 16.5664 3.54924 16.3267 3.30959C16.0871 3.06996 15.6986 3.06996 15.4589 3.30959L14.5911 4.17739Z" fill="white"/>
<path d="M3.30962 3.30956C3.54925 3.0699 3.93777 3.0699 4.17743 3.30956L5.04523 4.17736C5.28489 4.41699 5.28489 4.80554 5.04523 5.04517C4.80561 5.28482 4.41705 5.28482 4.17743 5.04517L3.30962 4.17736C3.06997 3.9377 3.06997 3.54918 3.30962 3.30956Z" fill="white"/>
<path d="M15.4589 14.5911C15.2193 14.3515 14.8307 14.3515 14.5911 14.5911C14.3515 14.8307 14.3515 15.2193 14.5911 15.4589L15.4589 16.3267C15.6986 16.5664 16.0871 16.5664 16.3267 16.3267C16.5664 16.0871 16.5664 15.6986 16.3267 15.4589L15.4589 14.5911Z" fill="white"/>
</g>
<defs>
<clipPath id="clip0_165_459">
<rect width="19.6364" height="19.6364" fill="white"/>
</clipPath>
</defs>
</svg>
